<svg id="svg" version="1.1" xmlns="http://www.w3.org/2000/svg" xmlns:xlink="http://www.w3.org/1999/xlink" width="400" height="421.9178082191781" viewBox="0, 0, 400,421.9178082191781">
    <g id="svgg">
        <path id="path0" d="M194.400 0.353 C 194.400 0.548,194.040 0.801,193.600 0.916 C 193.121 1.041,192.800 1.462,192.800 1.963 C 192.800 2.546,192.546 2.800,191.963 2.800 C 191.476 2.800,191.042 3.119,190.926 3.560 C 190.784 4.103,190.225 4.395,188.972 4.583 C 188.006 4.728,187.233 4.971,187.255 5.123 C 187.378 5.985,187.114 6.400,186.443 6.400 C 185.970 6.400,185.593 6.774,185.436 7.400 C 185.222 8.251,184.954 8.400,183.639 8.400 C 182.430 8.400,182.048 8.574,181.884 9.200 C 181.759 9.679,181.338 10.000,180.837 10.000 C 180.211 10.000,180.000 10.252,180.000 11.000 C 180.000 11.800,179.800 12.000,179.000 12.000 C 178.277 12.000,178.000 12.215,178.000 12.777 C 178.000 13.405,177.674 13.578,176.300 13.677 C 174.887 13.779,174.578 13.952,174.472 14.700 C 174.390 15.278,174.068 15.600,173.572 15.600 C 173.067 15.600,172.800 15.876,172.800 16.400 C 172.800 17.035,172.531 17.201,171.500 17.206 C 170.007 17.213,169.448 17.513,169.083 18.500 C 168.941 18.885,168.459 19.200,168.013 19.200 C 167.468 19.200,167.200 19.463,167.200 19.995 C 167.200 20.618,166.841 20.848,165.547 21.055 C 164.449 21.230,163.832 21.557,163.709 22.026 C 163.608 22.414,163.091 22.841,162.562 22.974 C 161.951 23.127,161.600 23.504,161.600 24.008 C 161.600 24.533,161.331 24.800,160.800 24.800 C 160.267 24.800,160.000 25.067,160.000 25.600 C 160.000 26.351,159.182 26.556,156.900 26.376 C 156.735 26.363,156.503 26.768,156.384 27.276 C 156.253 27.836,155.819 28.250,155.284 28.328 C 154.721 28.409,154.400 28.737,154.400 29.228 C 154.400 29.760,154.121 30.002,153.500 30.005 C 151.808 30.016,150.800 30.479,150.800 31.247 C 150.800 31.784,150.513 32.000,149.800 32.000 C 149.030 32.000,148.800 32.207,148.799 32.900 C 148.798 33.636,148.565 33.809,147.517 33.847 C 146.688 33.877,146.035 34.195,145.669 34.747 C 145.357 35.216,144.764 35.600,144.351 35.600 C 143.817 35.600,143.600 35.888,143.600 36.600 C 143.600 37.400,143.400 37.600,142.600 37.600 C 141.877 37.600,141.600 37.815,141.600 38.377 C 141.600 39.005,141.274 39.178,139.900 39.277 C 138.487 39.379,138.178 39.552,138.072 40.300 C 137.980 40.951,137.676 41.200,136.972 41.200 C 136.267 41.200,136.000 41.419,136.000 42.000 C 136.000 42.440,135.775 42.814,135.500 42.831 C 133.558 42.949,132.400 43.456,132.400 44.187 C 132.400 44.533,132.052 44.800,131.600 44.800 C 131.082 44.800,130.800 45.067,130.800 45.557 C 130.800 46.030,130.426 46.407,129.800 46.564 C 129.154 46.726,128.800 47.096,128.800 47.608 C 128.800 48.280,128.528 48.400,127.000 48.400 C 125.347 48.400,125.200 48.481,125.200 49.400 C 125.200 50.148,124.989 50.400,124.363 50.400 C 123.862 50.400,123.441 50.721,123.316 51.200 C 123.152 51.826,122.770 52.000,121.561 52.000 C 120.246 52.000,119.978 52.149,119.764 53.000 C 119.607 53.626,119.230 54.000,118.757 54.000 C 118.278 54.000,118.000 54.281,118.000 54.765 C 118.000 55.349,117.611 55.595,116.351 55.808 C 115.215 56.000,114.641 56.322,114.505 56.843 C 114.380 57.319,113.952 57.600,113.353 57.600 C 112.678 57.600,112.400 57.825,112.400 58.372 C 112.400 58.868,112.078 59.190,111.500 59.272 C 110.929 59.353,110.554 59.721,110.475 60.278 C 110.373 60.997,110.049 61.179,108.691 61.278 C 107.430 61.371,106.980 61.592,106.816 62.200 C 106.697 62.640,106.330 63.000,106.000 63.000 C 105.670 63.000,105.344 63.395,105.275 63.878 C 105.173 64.599,104.849 64.778,103.475 64.878 C 102.087 64.979,101.778 65.154,101.672 65.900 C 101.580 66.551,101.276 66.800,100.572 66.800 C 99.878 66.800,99.600 67.021,99.600 67.572 C 99.600 68.068,99.278 68.390,98.700 68.472 C 98.122 68.554,97.754 68.922,97.672 69.500 C 97.564 70.263,97.299 70.400,95.935 70.400 C 94.662 70.400,94.281 70.567,94.116 71.200 C 93.925 71.929,93.513 72.176,92.700 72.047 C 92.535 72.021,92.400 72.450,92.400 73.000 C 92.400 73.919,92.253 74.000,90.600 74.000 C 88.982 74.000,88.800 74.094,88.800 74.932 C 88.800 75.641,88.585 75.856,87.900 75.832 C 87.259 75.809,86.963 76.059,86.872 76.700 C 86.767 77.442,85.705 77.941,85.100 77.532 C 84.767 77.307,83.200 78.529,83.200 79.014 C 83.200 79.372,82.812 79.600,82.200 79.600 C 81.467 79.600,81.200 79.813,81.200 80.400 C 81.200 80.933,80.933 81.200,80.400 81.200 C 79.813 81.200,79.600 81.467,79.600 82.200 C 79.600 83.119,79.453 83.200,77.800 83.200 C 76.267 83.200,76.000 83.319,76.000 84.000 C 76.000 84.587,75.733 84.800,75.000 84.800 C 74.206 84.800,74.000 85.002,74.000 85.777 C 74.000 86.639,73.801 86.769,72.316 86.877 C 71.030 86.971,70.581 87.189,70.416 87.800 C 70.291 88.261,69.861 88.600,69.400 88.600 C 68.875 88.600,68.556 88.909,68.472 89.500 C 68.390 90.078,68.068 90.400,67.572 90.400 C 67.082 90.400,66.800 90.676,66.800 91.155 C 66.800 91.742,66.402 91.969,65.000 92.179 C 63.578 92.392,63.200 92.612,63.200 93.225 C 63.200 93.785,62.923 94.000,62.200 94.000 C 61.400 94.000,61.200 94.200,61.200 95.000 C 61.200 95.919,61.053 96.000,59.400 96.000 C 57.888 96.000,57.600 96.124,57.600 96.772 C 57.600 97.268,57.278 97.590,56.700 97.672 C 56.122 97.754,55.754 98.122,55.672 98.700 C 55.590 99.278,55.268 99.600,54.772 99.600 C 54.267 99.600,54.000 99.876,54.000 100.400 C 54.000 101.081,53.733 101.200,52.200 101.200 C 50.547 101.200,50.400 101.281,50.400 102.200 C 50.400 103.000,50.200 103.200,49.400 103.200 C 48.667 103.200,48.400 103.413,48.400 104.000 C 48.400 104.561,48.132 104.802,47.500 104.805 C 45.835 104.816,44.800 105.281,44.800 106.019 C 44.800 106.467,44.456 106.793,43.900 106.872 C 43.322 106.954,42.954 107.322,42.872 107.900 C 42.765 108.656,42.497 108.800,41.199 108.800 C 40.005 108.800,39.596 108.982,39.400 109.600 C 39.260 110.040,38.798 110.400,38.373 110.400 C 37.815 110.400,37.600 110.678,37.600 111.400 C 37.600 112.200,37.400 112.400,36.600 112.400 C 35.877 112.400,35.600 112.615,35.600 113.177 C 35.600 113.805,35.274 113.978,33.900 114.077 C 32.487 114.179,32.178 114.352,32.072 115.100 C 31.988 115.695,31.670 116.000,31.135 116.000 C 30.662 116.000,30.238 116.332,30.116 116.800 C 29.979 117.325,29.570 117.600,28.927 117.600 C 27.627 117.600,26.400 118.287,26.400 119.014 C 26.400 119.336,26.040 119.600,25.600 119.600 C 25.076 119.600,24.800 119.867,24.800 120.372 C 24.800 120.868,24.478 121.190,23.900 121.272 C 23.322 121.354,22.954 121.722,22.872 122.300 C 22.762 123.079,22.505 123.200,20.972 123.200 C 19.349 123.200,19.200 123.284,19.200 124.200 C 19.200 125.000,19.000 125.200,18.200 125.200 C 17.467 125.200,17.200 125.413,17.200 126.000 C 17.200 126.666,16.933 126.800,15.608 126.800 C 14.243 126.800,13.979 126.943,13.764 127.800 C 13.607 128.426,13.230 128.800,12.757 128.800 C 12.284 128.800,12.000 129.081,12.000 129.549 C 12.000 130.116,11.603 130.361,10.360 130.560 C 9.195 130.746,8.659 131.051,8.513 131.611 C 8.380 132.118,7.966 132.400,7.353 132.400 C 6.667 132.400,6.400 132.624,6.400 133.200 C 6.400 133.736,6.133 134.000,5.591 134.000 C 5.117 134.000,4.594 134.413,4.327 135.000 C 4.009 135.699,3.554 136.000,2.816 136.000 C 1.369 136.000,0.800 136.691,0.800 138.447 C 0.800 140.679,1.136 141.180,2.809 141.448 C 3.836 141.612,4.395 141.937,4.528 142.446 C 4.639 142.871,5.078 143.200,5.535 143.200 C 6.070 143.200,6.388 143.505,6.472 144.100 C 6.578 144.848,6.887 145.021,8.300 145.123 C 9.674 145.222,10.000 145.395,10.000 146.023 C 10.000 146.585,10.277 146.800,11.000 146.800 C 11.737 146.800,12.000 147.013,12.000 147.610 C 12.000 148.106,12.388 148.567,13.000 148.800 C 13.550 149.009,14.000 149.455,14.000 149.790 C 14.000 150.243,14.447 150.400,15.732 150.400 C 17.270 150.400,17.460 150.500,17.432 151.300 C 17.409 151.941,17.659 152.237,18.300 152.328 C 18.858 152.407,19.200 152.733,19.200 153.185 C 19.200 154.021,19.959 154.400,21.633 154.400 C 22.533 154.400,22.800 154.583,22.800 155.200 C 22.800 155.787,23.067 156.000,23.800 156.000 C 24.537 156.000,24.800 156.213,24.800 156.810 C 24.800 157.293,25.181 157.765,25.745 157.979 C 26.265 158.177,26.800 158.623,26.933 158.969 C 27.089 159.375,27.668 159.600,28.560 159.600 C 29.691 159.600,29.968 159.765,30.072 160.500 C 30.154 161.078,30.522 161.446,31.100 161.528 C 31.678 161.610,32.000 161.932,32.000 162.428 C 32.000 163.076,32.288 163.200,33.800 163.200 C 35.453 163.200,35.600 163.281,35.600 164.200 C 35.600 165.000,35.800 165.200,36.600 165.200 C 37.333 165.200,37.600 165.413,37.600 166.000 C 37.600 166.510,37.867 166.800,38.336 166.800 C 38.740 166.800,39.277 167.250,39.527 167.800 C 39.885 168.586,40.279 168.800,41.364 168.800 C 42.491 168.800,42.768 168.965,42.872 169.700 C 42.954 170.278,43.322 170.646,43.900 170.728 C 44.478 170.810,44.800 171.132,44.800 171.628 C 44.800 172.276,45.088 172.400,46.600 172.400 C 48.253 172.400,48.400 172.481,48.400 173.400 C 48.400 174.200,48.600 174.400,49.400 174.400 C 50.133 174.400,50.400 174.613,50.400 175.200 C 50.400 175.733,50.667 176.000,51.200 176.000 C 51.640 176.000,52.000 176.167,52.000 176.371 C 52.000 177.132,53.295 178.000,54.429 178.000 C 55.333 178.000,55.600 178.182,55.600 178.800 C 55.600 179.387,55.867 179.600,56.600 179.600 C 57.400 179.600,57.600 179.800,57.600 180.600 C 57.600 181.519,57.747 181.600,59.400 181.600 C 60.928 181.600,61.200 181.720,61.200 182.392 C 61.200 182.904,61.554 183.274,62.200 183.436 C 62.826 183.593,63.200 183.970,63.200 184.443 C 63.200 184.925,63.481 185.200,63.973 185.200 C 64.398 185.200,64.853 185.538,64.984 185.951 C 65.143 186.451,65.753 186.786,66.811 186.955 C 68.045 187.153,68.400 187.387,68.400 188.005 C 68.400 188.580,68.669 188.800,69.372 188.800 C 70.076 188.800,70.380 189.049,70.472 189.700 C 70.578 190.448,70.887 190.621,72.300 190.723 C 73.674 190.822,74.000 190.995,74.000 191.623 C 74.000 192.185,74.277 192.400,75.000 192.400 C 75.800 192.400,76.000 192.600,76.000 193.400 C 76.000 194.122,76.215 194.400,76.773 194.400 C 77.198 194.400,77.660 194.760,77.800 195.200 C 77.997 195.821,78.405 196.000,79.627 196.000 C 81.038 196.000,81.200 196.103,81.200 197.000 C 81.200 197.800,81.400 198.000,82.200 198.000 C 82.913 198.000,83.200 198.216,83.200 198.753 C 83.200 199.521,84.208 199.984,85.900 199.995 C 86.532 199.998,86.800 200.239,86.800 200.800 C 86.800 201.387,87.067 201.600,87.800 201.600 C 88.600 201.600,88.800 201.800,88.800 202.600 C 88.800 203.322,89.015 203.600,89.573 203.600 C 89.998 203.600,90.460 203.960,90.600 204.400 C 90.796 205.018,91.205 205.200,92.399 205.200 C 93.697 205.200,93.965 205.344,94.072 206.100 C 94.154 206.678,94.522 207.046,95.100 207.128 C 95.678 207.210,96.000 207.532,96.000 208.028 C 96.000 208.676,96.288 208.800,97.800 208.800 C 99.453 208.800,99.600 208.881,99.600 209.800 C 99.600 210.504,99.818 210.800,100.336 210.800 C 100.740 210.800,101.277 211.250,101.527 211.800 C 101.778 212.350,102.213 212.800,102.495 212.800 C 102.777 212.800,103.232 213.160,103.507 213.600 C 103.849 214.147,104.440 214.400,105.376 214.400 C 106.491 214.400,106.768 214.567,106.872 215.300 C 106.954 215.878,107.322 216.246,107.900 216.328 C 108.478 216.410,108.800 216.732,108.800 217.228 C 108.800 217.876,109.088 218.000,110.600 218.000 C 112.160 218.000,112.400 218.112,112.400 218.837 C 112.400 219.334,112.720 219.759,113.187 219.881 C 113.619 219.994,114.082 220.427,114.214 220.843 C 114.346 221.259,114.802 221.600,115.227 221.600 C 115.652 221.600,116.000 221.767,116.000 221.971 C 116.000 222.725,117.290 223.600,118.401 223.600 C 119.282 223.600,119.574 223.806,119.672 224.500 C 119.754 225.078,120.122 225.446,120.700 225.528 C 121.278 225.610,121.600 225.932,121.600 226.428 C 121.600 227.076,121.888 227.200,123.400 227.200 C 124.960 227.200,125.200 227.312,125.200 228.037 C 125.200 228.525,125.519 228.958,125.963 229.074 C 126.383 229.184,126.816 229.617,126.926 230.037 C 127.037 230.463,127.474 230.800,127.916 230.800 C 128.367 230.800,128.795 231.139,128.913 231.589 C 129.059 232.149,129.595 232.454,130.760 232.640 C 132.003 232.839,132.400 233.084,132.400 233.651 C 132.400 234.183,132.689 234.400,133.400 234.400 C 134.012 234.400,134.400 234.628,134.400 234.986 C 134.400 235.768,135.672 236.411,136.692 236.144 C 137.969 235.810,138.000 235.161,138.000 208.550 L 138.000 183.600 137.000 183.600 C 136.286 183.600,136.000 183.384,136.000 182.843 C 136.000 181.981,135.255 181.600,133.567 181.600 C 132.670 181.600,132.400 181.416,132.400 180.808 C 132.400 180.296,132.046 179.926,131.400 179.764 C 130.774 179.607,130.400 179.230,130.400 178.757 C 130.400 178.127,130.099 178.000,128.600 178.000 C 126.947 178.000,126.800 177.919,126.800 177.000 C 126.800 176.287,126.584 176.000,126.047 176.000 C 125.630 176.000,125.200 175.643,125.084 175.200 C 124.959 174.721,124.538 174.400,124.037 174.400 C 123.569 174.400,123.200 174.142,123.200 173.814 C 123.200 173.077,121.968 172.400,120.626 172.400 C 119.867 172.400,119.600 172.192,119.600 171.600 C 119.600 171.069,119.333 170.800,118.808 170.800 C 118.296 170.800,117.926 170.446,117.764 169.800 C 117.544 168.923,117.297 168.800,115.757 168.800 C 114.267 168.800,114.000 168.679,114.000 168.000 C 114.000 167.476,113.733 167.200,113.228 167.200 C 112.732 167.200,112.410 166.878,112.328 166.300 C 112.247 165.728,111.879 165.354,111.319 165.275 C 110.834 165.206,110.332 164.815,110.202 164.407 C 110.048 163.921,109.421 163.572,108.383 163.397 C 107.184 163.195,106.800 162.944,106.800 162.365 C 106.800 161.889,106.522 161.600,106.064 161.600 C 105.660 161.600,105.118 161.139,104.862 160.575 C 104.592 159.983,104.100 159.580,103.697 159.621 C 101.877 159.806,101.200 159.583,101.200 158.800 C 101.200 158.276,100.933 158.000,100.428 158.000 C 99.933 158.000,99.610 157.678,99.528 157.104 C 99.454 156.589,99.062 156.144,98.604 156.056 C 98.167 155.973,97.571 155.566,97.282 155.152 C 96.939 154.664,96.272 154.400,95.377 154.400 C 94.175 154.400,94.000 154.273,94.000 153.400 C 94.000 152.600,93.800 152.400,93.000 152.400 C 92.267 152.400,92.000 152.187,92.000 151.600 C 92.000 151.009,91.713 150.784,90.900 150.739 C 90.295 150.706,89.530 150.661,89.200 150.639 C 88.870 150.618,88.542 150.195,88.472 149.700 C 88.392 149.135,88.067 148.800,87.600 148.800 C 87.133 148.800,86.808 148.465,86.728 147.900 C 86.602 147.013,86.432 146.937,84.347 146.846 C 83.653 146.816,83.222 146.527,83.084 146.000 C 82.959 145.521,82.538 145.200,82.037 145.200 C 81.411 145.200,81.200 144.948,81.200 144.200 C 81.200 143.400,81.000 143.200,80.200 143.200 C 79.467 143.200,79.200 142.987,79.200 142.400 C 79.200 141.719,78.933 141.600,77.400 141.600 C 75.747 141.600,75.600 141.519,75.600 140.600 C 75.600 139.867,75.387 139.600,74.800 139.600 C 74.213 139.600,74.000 139.333,74.000 138.600 C 74.000 137.867,74.213 137.600,74.800 137.600 C 75.315 137.600,75.600 137.333,75.600 136.851 C 75.600 136.284,75.997 136.039,77.240 135.840 C 78.405 135.654,78.941 135.349,79.087 134.789 C 79.220 134.282,79.634 134.000,80.247 134.000 C 80.922 134.000,81.200 133.775,81.200 133.228 C 81.200 132.732,81.522 132.410,82.100 132.328 C 82.678 132.246,83.046 131.878,83.128 131.300 C 83.236 130.537,83.501 130.400,84.865 130.400 C 86.138 130.400,86.519 130.233,86.684 129.600 C 86.800 129.157,87.230 128.800,87.647 128.800 C 88.184 128.800,88.400 128.513,88.400 127.800 C 88.400 126.927,88.575 126.800,89.777 126.800 C 90.672 126.800,91.339 126.536,91.682 126.048 C 91.971 125.634,92.567 125.227,93.004 125.144 C 93.454 125.058,93.854 124.613,93.925 124.121 C 94.002 123.579,94.381 123.202,94.925 123.125 C 95.479 123.046,95.847 122.670,95.928 122.100 C 96.036 121.337,96.301 121.200,97.665 121.200 C 98.938 121.200,99.319 121.033,99.484 120.400 C 99.600 119.957,100.030 119.600,100.447 119.600 C 100.984 119.600,101.200 119.313,101.200 118.600 C 101.200 117.762,101.389 117.600,102.367 117.600 C 103.919 117.600,104.800 117.232,104.800 116.585 C 104.800 116.294,105.205 115.998,105.700 115.928 C 106.278 115.846,106.646 115.478,106.728 114.900 C 106.820 114.249,107.124 114.000,107.828 114.000 C 108.533 114.000,108.800 113.781,108.800 113.200 C 108.800 112.608,109.067 112.400,109.826 112.400 C 111.168 112.400,112.400 111.723,112.400 110.986 C 112.400 110.664,112.760 110.400,113.200 110.400 C 113.787 110.400,114.000 110.133,114.000 109.400 C 114.000 108.496,114.158 108.400,115.637 108.400 C 116.938 108.400,117.318 108.236,117.484 107.600 C 117.619 107.082,118.030 106.800,118.647 106.800 C 119.397 106.800,119.600 106.587,119.600 105.800 C 119.600 105.052,119.811 104.800,120.437 104.800 C 120.931 104.800,121.359 104.480,121.479 104.021 C 121.632 103.435,122.093 103.212,123.341 103.121 C 124.712 103.021,125.022 102.844,125.128 102.100 C 125.210 101.522,125.532 101.200,126.028 101.200 C 126.516 101.200,126.800 100.924,126.800 100.451 C 126.800 99.884,127.197 99.639,128.440 99.440 C 129.605 99.254,130.141 98.949,130.287 98.389 C 130.420 97.882,130.834 97.600,131.447 97.600 C 132.122 97.600,132.400 97.375,132.400 96.828 C 132.400 96.332,132.722 96.010,133.300 95.928 C 133.878 95.846,134.246 95.478,134.328 94.900 C 134.435 94.142,134.702 94.000,136.020 94.000 C 137.355 94.000,137.622 93.853,137.836 93.000 C 137.993 92.374,138.370 92.000,138.843 92.000 C 139.333 92.000,139.600 91.718,139.600 91.200 C 139.600 90.639,139.868 90.398,140.500 90.395 C 142.192 90.384,143.200 89.921,143.200 89.153 C 143.200 88.616,143.487 88.400,144.200 88.400 C 144.921 88.400,145.200 88.185,145.200 87.628 C 145.200 87.132,145.522 86.810,146.100 86.728 C 146.678 86.646,147.046 86.278,147.128 85.700 C 147.236 84.937,147.501 84.800,148.865 84.800 C 150.112 84.800,150.520 84.628,150.674 84.037 C 150.784 83.617,151.217 83.184,151.637 83.074 C 152.073 82.961,152.400 82.525,152.400 82.060 C 152.400 81.388,152.697 81.225,154.100 81.123 C 155.513 81.021,155.822 80.848,155.928 80.100 C 156.012 79.505,156.330 79.200,156.865 79.200 C 157.331 79.200,157.761 78.869,157.878 78.422 C 157.990 77.995,158.468 77.590,158.941 77.522 C 159.479 77.446,159.848 77.063,159.928 76.500 C 160.036 75.737,160.301 75.600,161.665 75.600 C 162.938 75.600,163.319 75.433,163.484 74.800 C 163.600 74.357,164.030 74.000,164.447 74.000 C 164.984 74.000,165.200 73.713,165.200 73.000 C 165.200 72.096,165.358 72.000,166.837 72.000 C 168.123 72.000,168.519 71.833,168.678 71.222 C 168.790 70.795,169.268 70.390,169.741 70.322 C 170.279 70.246,170.648 69.863,170.728 69.300 C 170.820 68.649,171.124 68.400,171.828 68.400 C 172.523 68.400,172.800 68.179,172.800 67.624 C 172.800 67.016,173.125 66.821,174.300 66.724 C 175.403 66.633,175.905 66.362,176.195 65.700 C 176.412 65.205,176.907 64.800,177.295 64.800 C 177.780 64.800,178.000 64.488,178.000 63.800 C 178.000 62.881,178.147 62.800,179.800 62.800 C 181.333 62.800,181.600 62.681,181.600 62.000 C 181.600 61.413,181.867 61.200,182.600 61.200 C 183.400 61.200,183.600 61.000,183.600 60.200 C 183.600 59.467,183.813 59.200,184.400 59.200 C 184.925 59.200,185.200 58.933,185.200 58.423 C 185.200 57.795,185.526 57.622,186.900 57.523 C 188.213 57.428,188.690 57.195,188.995 56.500 C 189.212 56.005,189.707 55.600,190.095 55.600 C 190.519 55.600,190.800 55.299,190.800 54.845 C 190.800 54.258,191.198 54.031,192.600 53.821 C 194.022 53.608,194.400 53.388,194.400 52.775 C 194.400 52.215,194.677 52.000,195.400 52.000 C 196.200 52.000,196.400 51.800,196.400 51.000 C 196.400 50.279,196.615 50.000,197.172 50.000 C 197.655 50.000,198.009 49.663,198.118 49.100 L 198.291 48.200 198.346 49.100 C 198.393 49.892,198.616 50.000,200.200 50.000 C 201.853 50.000,202.000 50.081,202.000 51.000 C 202.000 51.790,202.202 52.000,202.963 52.000 C 203.728 52.000,203.882 52.164,203.716 52.800 C 203.601 53.240,203.663 53.620,203.853 53.645 C 204.044 53.669,204.820 53.760,205.577 53.846 C 206.931 54.000,207.738 54.653,207.350 55.281 C 207.242 55.456,207.601 55.600,208.149 55.600 C 208.877 55.600,209.179 55.842,209.272 56.500 C 209.352 57.063,209.721 57.446,210.259 57.522 C 210.732 57.590,211.210 57.995,211.322 58.422 C 211.481 59.033,211.877 59.200,213.163 59.200 C 214.642 59.200,214.800 59.296,214.800 60.200 C 214.800 60.913,215.016 61.200,215.553 61.200 C 215.970 61.200,216.400 61.557,216.516 62.000 C 216.682 62.636,217.062 62.800,218.363 62.800 C 219.842 62.800,220.000 62.896,220.000 63.800 C 220.000 64.600,220.200 64.800,221.000 64.800 C 221.714 64.800,222.000 65.016,222.000 65.557 C 222.000 66.419,222.745 66.800,224.433 66.800 C 225.333 66.800,225.600 66.983,225.600 67.600 C 225.600 68.181,225.867 68.400,226.572 68.400 C 227.276 68.400,227.580 68.649,227.672 69.300 C 227.754 69.878,228.122 70.246,228.700 70.328 C 229.195 70.398,229.600 70.694,229.600 70.985 C 229.600 71.598,230.468 72.000,231.789 72.000 C 232.441 72.000,232.787 72.294,232.964 73.000 C 233.126 73.646,233.496 74.000,234.008 74.000 C 234.533 74.000,234.800 74.269,234.800 74.800 C 234.800 75.481,235.067 75.600,236.600 75.600 C 238.253 75.600,238.400 75.681,238.400 76.600 C 238.400 77.400,238.600 77.600,239.400 77.600 C 240.133 77.600,240.400 77.813,240.400 78.400 C 240.400 79.081,240.667 79.200,242.200 79.200 C 243.853 79.200,244.000 79.281,244.000 80.200 C 244.000 80.933,244.213 81.200,244.800 81.200 C 245.324 81.200,245.600 81.467,245.600 81.973 C 245.600 82.424,245.975 82.865,246.500 83.030 C 246.995 83.187,247.635 83.649,247.923 84.057 C 248.256 84.531,248.934 84.800,249.795 84.800 C 250.890 84.800,251.168 84.970,251.272 85.700 C 251.354 86.278,251.722 86.646,252.300 86.728 C 252.878 86.810,253.200 87.132,253.200 87.628 C 253.200 88.276,253.488 88.400,255.000 88.400 C 256.560 88.400,256.800 88.512,256.800 89.237 C 256.800 89.725,257.119 90.158,257.563 90.274 C 257.983 90.384,258.416 90.817,258.526 91.237 C 258.681 91.831,259.088 92.000,260.363 92.000 C 261.842 92.000,262.000 92.096,262.000 93.000 C 262.000 93.800,262.200 94.000,263.000 94.000 C 263.714 94.000,264.000 94.216,264.000 94.757 C 264.000 95.619,264.745 96.000,266.433 96.000 C 267.333 96.000,267.600 96.183,267.600 96.800 C 267.600 97.381,267.867 97.600,268.572 97.600 C 269.276 97.600,269.580 97.849,269.672 98.500 C 269.754 99.078,270.122 99.446,270.700 99.528 C 271.195 99.598,271.600 99.894,271.600 100.185 C 271.600 100.800,272.469 101.200,273.805 101.200 C 274.475 101.200,274.781 101.458,274.872 102.100 C 274.952 102.663,275.321 103.046,275.859 103.122 C 276.332 103.190,276.810 103.595,276.922 104.022 C 277.081 104.633,277.477 104.800,278.763 104.800 C 280.242 104.800,280.400 104.896,280.400 105.800 C 280.400 106.600,280.600 106.800,281.400 106.800 C 282.133 106.800,282.400 107.013,282.400 107.600 C 282.400 108.281,282.667 108.400,284.200 108.400 C 285.853 108.400,286.000 108.481,286.000 109.400 C 286.000 110.133,286.213 110.400,286.800 110.400 C 287.324 110.400,287.600 110.667,287.600 111.173 C 287.600 111.624,287.975 112.065,288.500 112.230 C 288.995 112.387,289.635 112.849,289.923 113.257 C 290.259 113.736,290.935 114.000,291.823 114.000 C 292.929 114.000,293.200 114.156,293.200 114.792 C 293.200 115.304,293.554 115.674,294.200 115.836 C 294.826 115.993,295.200 116.370,295.200 116.843 C 295.200 117.473,295.501 117.600,297.000 117.600 C 298.653 117.600,298.800 117.681,298.800 118.600 C 298.800 119.333,299.013 119.600,299.600 119.600 C 300.133 119.600,300.400 119.867,300.400 120.400 C 300.400 121.081,300.667 121.200,302.200 121.200 C 303.853 121.200,304.000 121.281,304.000 122.200 C 304.000 123.000,304.200 123.200,305.000 123.200 C 305.722 123.200,306.000 123.415,306.000 123.973 C 306.000 124.424,306.375 124.865,306.900 125.030 C 307.395 125.187,308.035 125.649,308.323 126.057 C 308.659 126.536,309.335 126.800,310.223 126.800 C 311.425 126.800,311.600 126.927,311.600 127.800 C 311.600 128.513,311.816 128.800,312.353 128.800 C 312.770 128.800,313.200 129.157,313.316 129.600 C 313.481 130.233,313.862 130.400,315.135 130.400 C 316.499 130.400,316.764 130.537,316.872 131.300 C 316.954 131.878,317.322 132.246,317.900 132.328 C 318.478 132.410,318.800 132.732,318.800 133.228 C 318.800 133.875,319.088 134.000,320.572 134.000 C 322.105 134.000,322.362 134.121,322.472 134.900 C 322.554 135.478,322.922 135.846,323.500 135.928 C 324.078 136.010,324.400 136.332,324.400 136.828 C 324.400 137.475,324.708 137.609,326.300 137.654 C 327.345 137.684,327.804 137.786,327.319 137.880 C 326.834 137.974,326.333 138.380,326.206 138.782 C 326.078 139.184,325.619 139.606,325.187 139.719 C 324.720 139.841,324.400 140.266,324.400 140.763 C 324.400 141.476,324.158 141.600,322.763 141.600 C 321.462 141.600,321.082 141.764,320.916 142.400 C 320.801 142.840,320.548 143.222,320.353 143.250 C 320.159 143.278,319.775 143.322,319.500 143.350 C 319.225 143.378,318.942 143.805,318.872 144.300 C 318.780 144.951,318.476 145.200,317.772 145.200 C 317.067 145.200,316.800 145.419,316.800 146.000 C 316.800 146.592,316.533 146.800,315.774 146.800 C 314.432 146.800,313.200 147.477,313.200 148.214 C 313.200 148.536,312.840 148.800,312.400 148.800 C 311.876 148.800,311.600 149.067,311.600 149.572 C 311.600 150.068,311.278 150.390,310.700 150.472 C 310.122 150.554,309.754 150.922,309.672 151.500 C 309.562 152.279,309.305 152.400,307.772 152.400 C 306.149 152.400,306.000 152.484,306.000 153.400 C 306.000 154.200,305.800 154.400,305.000 154.400 C 304.277 154.400,304.000 154.615,304.000 155.176 C 304.000 155.784,303.675 155.979,302.500 156.076 C 301.397 156.167,300.895 156.438,300.605 157.100 C 300.388 157.595,299.893 158.000,299.505 158.000 C 299.083 158.000,298.800 158.300,298.800 158.749 C 298.800 159.316,298.403 159.561,297.160 159.760 C 295.995 159.946,295.459 160.251,295.313 160.811 C 295.179 161.323,294.766 161.600,294.134 161.600 C 293.195 161.600,293.166 161.686,293.281 164.100 L 293.400 166.600 295.100 166.723 C 296.602 166.832,296.800 166.960,296.800 167.823 C 296.800 168.598,297.006 168.800,297.800 168.800 C 298.514 168.800,298.800 169.016,298.800 169.557 C 298.800 170.419,299.545 170.800,301.233 170.800 C 302.133 170.800,302.400 170.983,302.400 171.600 C 302.400 172.124,302.667 172.400,303.172 172.400 C 303.668 172.400,303.990 172.722,304.072 173.300 C 304.160 173.920,304.511 174.235,305.200 174.312 C 307.397 174.558,307.973 174.805,307.743 175.404 C 307.577 175.838,307.798 176.000,308.557 176.000 C 309.403 176.000,309.600 176.189,309.600 177.000 C 309.600 177.800,309.800 178.000,310.600 178.000 C 311.333 178.000,311.600 178.213,311.600 178.800 C 311.600 179.481,311.867 179.600,313.400 179.600 C 315.053 179.600,315.200 179.681,315.200 180.600 C 315.200 181.333,315.413 181.600,316.000 181.600 C 316.440 181.600,316.800 181.864,316.800 182.186 C 316.800 183.020,317.929 183.600,319.553 183.600 C 319.970 183.600,320.400 183.957,320.516 184.400 C 320.638 184.868,321.062 185.200,321.535 185.200 C 322.070 185.200,322.388 185.505,322.472 186.100 C 322.554 186.678,322.922 187.046,323.500 187.128 C 324.078 187.210,324.400 187.532,324.400 188.028 C 324.400 189.231,331.169 189.204,331.484 188.000 C 331.600 187.557,332.030 187.200,332.447 187.200 C 332.984 187.200,333.200 186.913,333.200 186.200 C 333.200 185.327,333.375 185.200,334.577 185.200 C 335.465 185.200,336.141 184.936,336.477 184.457 C 336.765 184.049,337.405 183.587,337.900 183.430 C 338.410 183.269,338.800 182.823,338.800 182.401 C 338.800 181.933,339.134 181.608,339.700 181.528 C 340.278 181.446,340.646 181.078,340.728 180.500 C 340.833 179.761,341.108 179.600,342.265 179.600 C 343.338 179.600,343.725 179.409,343.884 178.800 C 344.019 178.282,344.430 178.000,345.047 178.000 C 345.797 178.000,346.000 177.787,346.000 177.000 C 346.000 176.200,346.200 176.000,347.000 176.000 C 347.711 176.000,348.000 175.783,348.000 175.251 C 348.000 174.684,348.397 174.439,349.640 174.240 C 350.805 174.054,351.341 173.749,351.487 173.189 C 351.605 172.739,352.033 172.400,352.484 172.400 C 352.938 172.400,353.364 172.060,353.484 171.600 C 353.600 171.157,354.030 170.800,354.447 170.800 C 354.984 170.800,355.200 170.513,355.200 169.800 C 355.200 168.962,355.389 168.800,356.367 168.800 C 358.055 168.800,358.800 168.419,358.800 167.557 C 358.800 167.016,359.086 166.800,359.800 166.800 C 360.533 166.800,360.800 166.587,360.800 166.000 C 360.800 165.467,361.067 165.200,361.600 165.200 C 362.187 165.200,362.400 164.933,362.400 164.200 C 362.400 163.281,362.547 163.200,364.200 163.200 C 365.712 163.200,366.000 163.076,366.000 162.428 C 366.000 161.932,366.322 161.610,366.900 161.528 C 367.478 161.446,367.846 161.078,367.928 160.500 C 368.020 159.849,368.324 159.600,369.028 159.600 C 369.711 159.600,370.000 159.378,370.000 158.851 C 370.000 158.284,370.397 158.039,371.640 157.840 C 372.805 157.654,373.341 157.349,373.487 156.789 C 373.600 156.355,374.032 156.000,374.447 156.000 C 374.919 156.000,375.200 155.718,375.200 155.243 C 375.200 154.770,375.574 154.393,376.200 154.236 C 376.833 154.077,377.200 153.702,377.200 153.215 C 377.200 152.596,377.532 152.422,378.900 152.323 C 380.313 152.221,380.622 152.048,380.728 151.300 C 380.820 150.649,381.124 150.400,381.828 150.400 C 382.533 150.400,382.800 150.181,382.800 149.600 C 382.800 149.067,383.067 148.800,383.600 148.800 C 384.187 148.800,384.400 148.533,384.400 147.800 C 384.400 146.881,384.547 146.800,386.200 146.800 C 387.712 146.800,388.000 146.676,388.000 146.028 C 388.000 145.532,388.322 145.210,388.900 145.128 C 389.478 145.046,389.846 144.678,389.928 144.100 C 390.010 143.522,390.332 143.200,390.828 143.200 C 391.333 143.200,391.600 142.924,391.600 142.400 C 391.600 141.664,392.692 141.306,394.142 141.567 C 394.909 141.704,395.472 140.716,395.535 139.122 C 395.623 136.878,395.303 136.000,394.400 136.000 C 393.990 136.000,393.544 135.655,393.410 135.232 C 393.247 134.718,392.644 134.376,391.583 134.197 C 390.384 133.995,390.000 133.744,390.000 133.165 C 390.000 132.616,389.718 132.400,389.000 132.400 C 388.286 132.400,388.000 132.184,388.000 131.643 C 388.000 130.781,387.255 130.400,385.567 130.400 C 384.667 130.400,384.400 130.217,384.400 129.600 C 384.400 129.082,384.133 128.800,383.643 128.800 C 383.170 128.800,382.793 128.426,382.636 127.800 C 382.415 126.919,382.171 126.800,380.592 126.800 C 379.067 126.800,378.800 126.681,378.800 126.000 C 378.800 125.467,378.533 125.200,378.000 125.200 C 377.413 125.200,377.200 124.933,377.200 124.200 C 377.200 123.400,377.000 123.200,376.200 123.200 C 375.487 123.200,375.200 122.984,375.200 122.445 C 375.200 121.858,374.802 121.631,373.400 121.421 C 371.978 121.208,371.600 120.988,371.600 120.375 C 371.600 119.802,371.322 119.600,370.533 119.600 C 369.947 119.600,369.580 119.486,369.719 119.347 C 370.158 118.909,369.180 117.555,368.475 117.625 C 367.020 117.770,366.485 117.568,366.284 116.800 C 366.162 116.332,365.738 116.000,365.265 116.000 C 364.730 116.000,364.412 115.695,364.328 115.100 C 364.248 114.537,363.879 114.154,363.341 114.078 C 362.868 114.010,362.390 113.605,362.278 113.178 C 362.119 112.567,361.723 112.400,360.437 112.400 C 359.042 112.400,358.800 112.276,358.800 111.563 C 358.800 111.066,358.480 110.641,358.013 110.519 C 357.581 110.406,357.118 109.973,356.986 109.557 C 356.806 108.988,356.366 108.800,355.216 108.800 C 353.918 108.800,353.649 108.649,353.436 107.800 C 353.280 107.179,352.901 106.800,352.436 106.800 C 351.970 106.800,351.592 106.421,351.436 105.800 C 351.288 105.213,350.898 104.800,350.489 104.800 C 350.106 104.800,349.568 104.440,349.293 104.000 C 348.948 103.448,348.360 103.200,347.397 103.200 C 346.174 103.200,346.000 103.076,346.000 102.200 C 346.000 101.487,345.784 101.200,345.247 101.200 C 344.830 101.200,344.400 100.843,344.284 100.400 C 344.119 99.767,343.738 99.600,342.465 99.600 C 341.101 99.600,340.836 99.463,340.728 98.700 C 340.646 98.122,340.278 97.754,339.700 97.672 C 339.122 97.590,338.800 97.268,338.800 96.772 C 338.800 96.215,338.521 96.000,337.800 96.000 C 337.188 96.000,336.800 95.772,336.800 95.414 C 336.800 94.677,335.568 94.000,334.226 94.000 C 333.479 94.000,333.200 93.790,333.200 93.227 C 333.200 92.802,332.849 92.343,332.420 92.206 C 331.992 92.070,331.530 91.608,331.394 91.180 C 331.205 90.584,330.781 90.400,329.601 90.400 C 328.303 90.400,328.035 90.256,327.928 89.500 C 327.846 88.922,327.478 88.554,326.900 88.472 C 326.322 88.390,326.000 88.068,326.000 87.572 C 326.000 86.924,325.712 86.800,324.200 86.800 C 322.547 86.800,322.400 86.719,322.400 85.800 C 322.400 85.000,322.200 84.800,321.400 84.800 C 320.667 84.800,320.400 84.587,320.400 84.000 C 320.400 83.503,320.133 83.200,319.695 83.200 C 319.307 83.200,318.812 82.795,318.595 82.300 C 318.305 81.638,317.803 81.367,316.700 81.276 C 315.525 81.179,315.200 80.984,315.200 80.376 C 315.200 79.815,314.923 79.600,314.200 79.600 C 313.400 79.600,313.200 79.400,313.200 78.600 C 313.200 77.684,313.051 77.600,311.428 77.600 C 309.895 77.600,309.638 77.479,309.528 76.700 C 309.446 76.122,309.078 75.754,308.500 75.672 C 307.922 75.590,307.600 75.268,307.600 74.772 C 307.600 74.276,307.324 74.000,306.827 74.000 C 306.402 74.000,305.940 73.640,305.800 73.200 C 305.625 72.648,305.060 72.323,303.973 72.149 C 302.792 71.960,302.400 71.711,302.400 71.149 C 302.400 70.622,302.111 70.400,301.428 70.400 C 300.724 70.400,300.420 70.151,300.328 69.500 C 300.222 68.752,299.913 68.579,298.500 68.477 C 297.126 68.378,296.800 68.205,296.800 67.577 C 296.800 67.015,296.523 66.800,295.800 66.800 C 295.000 66.800,294.800 66.600,294.800 65.800 C 294.800 65.078,294.585 64.800,294.027 64.800 C 293.602 64.800,293.144 64.455,293.010 64.032 C 292.847 63.518,292.244 63.176,291.183 62.997 C 289.984 62.795,289.600 62.544,289.600 61.965 C 289.600 61.416,289.318 61.200,288.600 61.200 C 287.886 61.200,287.600 60.984,287.600 60.443 C 287.600 59.581,286.855 59.200,285.167 59.200 C 284.267 59.200,284.000 59.017,284.000 58.400 C 284.000 57.813,283.733 57.600,283.000 57.600 C 282.200 57.600,282.000 57.400,282.000 56.600 C 282.000 55.813,281.797 55.600,281.047 55.600 C 280.430 55.600,280.019 55.318,279.884 54.800 C 279.725 54.193,279.338 54.000,278.281 54.000 C 277.127 54.000,276.843 53.827,276.636 53.000 C 276.474 52.354,276.104 52.000,275.592 52.000 C 275.067 52.000,274.800 51.731,274.800 51.200 C 274.800 50.519,274.533 50.400,273.000 50.400 C 271.347 50.400,271.200 50.319,271.200 49.400 C 271.200 48.712,270.980 48.400,270.495 48.400 C 270.107 48.400,269.612 47.995,269.395 47.500 C 269.090 46.805,268.613 46.572,267.300 46.477 C 265.926 46.378,265.600 46.205,265.600 45.577 C 265.600 45.076,265.326 44.800,264.828 44.800 C 264.332 44.800,264.010 44.478,263.928 43.900 C 263.846 43.322,263.478 42.954,262.900 42.872 C 262.322 42.790,262.000 42.468,262.000 41.972 C 262.000 41.324,261.712 41.200,260.200 41.200 C 258.547 41.200,258.400 41.119,258.400 40.200 C 258.400 39.478,258.185 39.200,257.627 39.200 C 257.202 39.200,256.740 38.840,256.600 38.400 C 256.396 37.759,255.995 37.600,254.573 37.600 C 252.948 37.600,252.800 37.516,252.800 36.600 C 252.800 35.867,252.587 35.600,252.000 35.600 C 251.469 35.600,251.200 35.333,251.200 34.808 C 251.200 34.304,250.849 33.927,250.238 33.774 C 249.709 33.641,249.185 33.187,249.075 32.766 C 248.919 32.169,248.514 32.000,247.237 32.000 C 245.740 32.000,245.600 31.911,245.600 30.957 C 245.600 30.185,245.441 29.975,244.988 30.149 C 244.588 30.303,244.219 30.040,243.924 29.392 C 243.543 28.558,243.195 28.400,241.736 28.400 C 240.151 28.400,240.000 28.313,240.000 27.400 C 240.000 26.667,239.787 26.400,239.200 26.400 C 238.667 26.400,238.400 26.133,238.400 25.600 C 238.400 25.013,238.133 24.800,237.400 24.800 C 236.686 24.800,236.400 24.584,236.400 24.043 C 236.400 23.181,235.655 22.800,233.967 22.800 C 233.067 22.800,232.800 22.617,232.800 22.000 C 232.800 21.469,232.533 21.200,232.008 21.200 C 231.496 21.200,231.126 20.846,230.964 20.200 C 230.744 19.323,230.497 19.200,228.957 19.200 C 227.350 19.200,227.200 19.115,227.200 18.200 C 227.200 17.467,226.987 17.200,226.400 17.200 C 225.867 17.200,225.600 16.933,225.600 16.400 C 225.600 15.824,225.333 15.600,224.647 15.600 C 224.034 15.600,223.620 15.318,223.487 14.811 C 223.342 14.255,222.808 13.947,221.675 13.766 C 220.572 13.589,220.008 13.273,219.872 12.754 C 219.764 12.339,219.391 12.000,219.045 12.000 C 218.699 12.000,218.302 11.550,218.164 11.000 C 217.950 10.148,217.683 10.000,216.357 10.000 C 215.067 10.000,214.800 9.863,214.800 9.200 C 214.800 8.613,214.533 8.400,213.800 8.400 C 213.000 8.400,212.800 8.200,212.800 7.400 C 212.800 6.613,212.597 6.400,211.847 6.400 C 211.248 6.400,210.820 6.119,210.695 5.643 C 210.559 5.122,209.985 4.800,208.849 4.608 C 207.589 4.395,207.200 4.149,207.200 3.565 C 207.200 3.067,206.921 2.800,206.400 2.800 C 205.960 2.800,205.600 2.633,205.600 2.429 C 205.600 1.668,204.305 0.800,203.171 0.800 C 202.527 0.800,202.000 0.620,202.000 0.400 C 202.000 0.161,200.467 0.000,198.200 0.000 C 196.110 0.000,194.400 0.159,194.400 0.353 M184.300 134.276 C 183.562 134.469,183.172 267.557,183.906 268.629 C 184.068 268.865,184.515 269.175,184.900 269.317 C 185.285 269.459,185.600 269.953,185.600 270.414 C 185.600 271.072,185.773 271.199,186.400 271.000 C 187.058 270.791,187.200 270.928,187.200 271.773 C 187.200 272.588,187.396 272.800,188.153 272.800 C 188.744 272.800,189.180 273.081,189.300 273.539 C 189.617 274.753,191.200 274.939,191.200 273.763 C 191.200 273.067,190.978 272.800,190.400 272.800 C 189.815 272.800,189.600 272.533,189.600 271.808 C 189.600 271.083,189.331 270.748,188.600 270.564 C 188.050 270.426,187.600 270.058,187.600 269.747 C 187.600 269.435,187.150 269.009,186.600 268.800 L 185.600 268.420 185.600 203.690 C 185.600 133.660,185.452 138.000,187.843 138.000 C 189.299 138.000,189.377 136.476,187.939 136.100 C 187.262 135.923,187.145 135.728,187.230 134.916 C 187.294 134.299,185.615 133.932,184.300 134.276 M190.400 139.000 C 190.400 139.748,190.611 140.000,191.237 140.000 C 191.738 140.000,192.159 140.321,192.284 140.800 C 192.621 142.088,194.400 141.883,194.400 140.557 C 194.400 139.785,194.241 139.575,193.787 139.750 C 193.380 139.906,193.048 139.652,192.797 138.992 C 192.257 137.572,190.400 137.577,190.400 139.000 M195.709 142.419 C 195.668 142.959,195.992 143.369,196.662 143.624 C 197.221 143.836,197.771 144.367,197.885 144.805 C 198.107 145.651,198.358 145.744,199.367 145.357 C 200.464 144.936,200.168 143.200,199.000 143.200 C 198.267 143.200,198.000 142.987,198.000 142.400 C 198.000 141.232,195.797 141.250,195.709 142.419 M201.397 146.066 C 201.433 146.551,201.843 147.072,202.331 147.253 C 202.809 147.429,203.200 147.839,203.200 148.164 C 203.200 148.973,203.848 149.302,204.827 148.991 C 205.922 148.644,205.734 147.000,204.600 147.000 C 204.075 147.000,203.756 146.691,203.672 146.100 C 203.489 144.811,201.303 144.778,201.397 146.066 M206.698 149.778 C 206.816 150.396,207.200 150.800,207.742 150.878 C 208.279 150.954,208.648 151.337,208.728 151.900 C 208.919 153.245,210.800 153.179,210.800 151.827 C 210.800 151.214,210.512 150.762,210.020 150.606 C 209.592 150.470,209.130 150.008,208.994 149.580 C 208.590 148.307,206.452 148.492,206.698 149.778 M212.400 219.320 C 212.400 270.836,212.290 286.350,211.920 286.720 C 211.122 287.518,210.006 287.267,209.600 286.200 C 209.207 285.166,208.594 284.962,207.661 285.554 C 206.852 286.067,207.281 287.382,208.304 287.528 C 208.878 287.610,209.200 287.933,209.200 288.428 C 209.200 289.360,213.624 289.599,214.251 288.700 C 215.088 287.501,214.666 153.585,213.824 152.968 C 213.396 152.656,212.901 152.400,212.724 152.400 C 212.546 152.400,212.400 182.514,212.400 219.320 M257.067 187.467 C 256.277 188.257,256.792 232.792,257.600 233.600 C 258.040 234.040,258.400 234.757,258.400 235.192 C 258.400 235.696,258.751 236.073,259.362 236.226 C 259.891 236.359,260.415 236.813,260.525 237.234 C 260.681 237.831,261.086 238.000,262.363 238.000 C 263.842 238.000,264.000 238.096,264.000 239.000 C 264.000 239.722,264.215 240.000,264.773 240.000 C 265.198 240.000,265.660 240.360,265.800 240.800 C 265.940 241.240,266.222 241.623,266.427 241.650 C 266.632 241.678,266.980 241.745,267.200 241.800 C 267.420 241.855,268.050 241.923,268.600 241.950 C 269.317 241.986,269.600 242.227,269.600 242.800 C 269.600 243.333,269.867 243.600,270.400 243.600 C 270.918 243.600,271.200 243.867,271.200 244.357 C 271.200 244.820,271.569 245.206,272.152 245.352 C 272.676 245.484,273.199 245.953,273.315 246.396 C 273.482 247.036,273.859 247.200,275.163 247.200 C 276.642 247.200,276.800 247.296,276.800 248.200 C 276.800 248.922,277.015 249.200,277.573 249.200 C 277.998 249.200,278.460 249.560,278.600 250.000 C 278.804 250.641,279.205 250.800,280.627 250.800 C 282.252 250.800,282.400 250.884,282.400 251.800 C 282.400 252.514,282.616 252.800,283.157 252.800 C 283.630 252.800,284.007 253.174,284.164 253.800 C 284.320 254.419,284.699 254.800,285.161 254.800 C 285.571 254.800,286.001 255.160,286.116 255.600 C 286.282 256.236,286.662 256.400,287.963 256.400 C 289.358 256.400,289.600 256.524,289.600 257.237 C 289.600 257.725,289.919 258.158,290.363 258.274 C 290.783 258.384,291.216 258.817,291.326 259.237 C 291.439 259.671,291.875 260.000,292.336 260.000 C 292.783 260.000,293.255 260.344,293.390 260.768 C 293.553 261.282,294.156 261.624,295.217 261.803 C 296.416 262.005,296.800 262.256,296.800 262.835 C 296.800 263.378,297.082 263.600,297.772 263.600 C 298.476 263.600,298.780 263.849,298.872 264.500 C 298.978 265.248,299.287 265.421,300.700 265.523 C 302.074 265.622,302.400 265.795,302.400 266.423 C 302.400 266.924,302.674 267.200,303.172 267.200 C 303.667 267.200,303.990 267.522,304.072 268.096 C 304.146 268.611,304.538 269.056,304.996 269.144 C 305.433 269.227,306.024 269.627,306.307 270.032 C 306.591 270.437,307.448 270.885,308.211 271.029 C 309.214 271.217,309.600 271.499,309.600 272.045 C 309.600 272.584,309.886 272.800,310.600 272.800 C 311.314 272.800,311.600 273.016,311.600 273.557 C 311.600 274.419,312.345 274.800,314.033 274.800 C 314.933 274.800,315.200 274.983,315.200 275.600 C 315.200 276.133,315.467 276.400,316.000 276.400 C 316.531 276.400,316.800 276.667,316.800 277.192 C 316.800 277.696,317.151 278.073,317.762 278.226 C 318.291 278.359,318.815 278.813,318.925 279.234 C 319.081 279.831,319.486 280.000,320.763 280.000 C 322.242 280.000,322.400 280.096,322.400 281.000 C 322.400 281.800,322.600 282.000,323.400 282.000 C 324.119 282.000,324.400 282.216,324.400 282.767 C 324.400 283.188,324.625 283.624,324.900 283.735 C 325.300 283.896,325.300 283.943,324.900 283.968 C 324.625 283.986,324.400 284.360,324.400 284.800 C 324.400 285.480,324.133 285.600,322.628 285.600 C 321.095 285.600,320.838 285.721,320.728 286.500 C 320.646 287.078,320.278 287.446,319.700 287.528 C 319.147 287.606,318.800 287.933,318.800 288.377 C 318.800 288.912,318.376 289.165,317.160 289.360 C 315.995 289.546,315.459 289.851,315.313 290.411 C 315.180 290.918,314.766 291.200,314.153 291.200 C 313.467 291.200,313.200 291.424,313.200 292.000 C 313.200 292.533,312.933 292.800,312.400 292.800 C 311.813 292.800,311.600 293.067,311.600 293.800 C 311.600 294.719,311.453 294.800,309.800 294.800 C 308.455 294.800,308.000 294.954,308.000 295.409 C 308.000 295.743,307.550 296.222,307.000 296.473 C 306.450 296.723,306.000 297.260,306.000 297.664 C 306.000 298.211,305.699 298.400,304.833 298.400 C 303.145 298.400,302.400 298.781,302.400 299.643 C 302.400 300.184,302.114 300.400,301.400 300.400 C 300.667 300.400,300.400 300.613,300.400 301.200 C 300.400 301.733,300.133 302.000,299.600 302.000 C 299.013 302.000,298.800 302.267,298.800 303.000 C 298.800 303.904,298.642 304.000,297.163 304.000 C 295.862 304.000,295.482 304.164,295.316 304.800 C 295.181 305.318,294.770 305.600,294.153 305.600 C 293.403 305.600,293.200 305.813,293.200 306.600 C 293.200 307.504,293.042 307.600,291.563 307.600 C 290.286 307.600,289.881 307.769,289.725 308.366 C 289.615 308.787,289.091 309.241,288.562 309.374 C 287.951 309.527,287.600 309.904,287.600 310.408 C 287.600 311.004,287.328 311.202,286.500 311.206 C 285.203 311.213,284.636 311.544,284.283 312.500 C 284.141 312.885,283.659 313.200,283.213 313.200 C 282.676 313.200,282.400 313.463,282.400 313.972 C 282.400 314.468,282.078 314.790,281.500 314.872 C 280.922 314.954,280.554 315.322,280.472 315.900 C 280.362 316.679,280.105 316.800,278.572 316.800 C 277.088 316.800,276.800 316.925,276.800 317.572 C 276.800 318.068,276.478 318.390,275.900 318.472 C 275.322 318.554,274.954 318.922,274.872 319.500 C 274.765 320.256,274.497 320.400,273.199 320.400 C 272.035 320.400,271.595 320.586,271.414 321.157 C 271.282 321.573,270.819 322.006,270.387 322.119 C 269.920 322.241,269.600 322.666,269.600 323.163 C 269.600 323.789,269.348 324.000,268.600 324.000 C 267.816 324.000,267.600 324.204,267.600 324.943 C 267.600 325.657,267.381 325.884,266.700 325.878 C 264.443 325.856,264.000 326.007,264.000 326.800 C 264.000 327.387,263.733 327.600,263.000 327.600 C 262.200 327.600,262.000 327.800,262.000 328.600 C 262.000 329.504,261.842 329.600,260.363 329.600 C 259.088 329.600,258.681 329.769,258.526 330.363 C 258.416 330.783,257.983 331.216,257.563 331.326 C 257.119 331.442,256.800 331.875,256.800 332.363 C 256.800 333.076,256.558 333.200,255.163 333.200 C 253.877 333.200,253.481 333.367,253.322 333.978 C 253.210 334.405,252.732 334.810,252.259 334.878 C 251.721 334.954,251.352 335.337,251.272 335.900 C 251.181 336.543,250.875 336.800,250.200 336.800 C 249.525 336.800,249.219 337.057,249.128 337.700 C 249.036 338.348,248.720 338.609,248.000 338.632 C 245.881 338.699,245.600 338.812,245.600 339.600 C 245.600 340.133,245.333 340.400,244.800 340.400 C 244.213 340.400,244.000 340.667,244.000 341.400 C 244.000 342.319,243.853 342.400,242.200 342.400 C 240.667 342.400,240.400 342.519,240.400 343.200 C 240.400 343.787,240.133 344.000,239.400 344.000 C 238.600 344.000,238.400 344.200,238.400 345.000 C 238.400 345.873,238.225 346.000,237.023 346.000 C 236.083 346.000,235.461 346.263,235.065 346.829 C 234.745 347.285,234.150 347.707,233.742 347.765 C 233.333 347.824,232.943 348.260,232.872 348.736 C 232.792 349.279,232.457 349.600,231.972 349.600 C 231.467 349.600,231.200 349.876,231.200 350.400 C 231.200 350.949,230.918 351.214,230.300 351.246 C 229.805 351.272,229.220 351.334,229.000 351.385 C 228.780 351.436,228.375 351.506,228.100 351.539 C 227.825 351.573,227.600 351.960,227.600 352.400 C 227.600 352.987,227.333 353.200,226.600 353.200 C 225.886 353.200,225.600 353.416,225.600 353.957 C 225.600 354.794,224.858 355.200,223.330 355.200 C 222.671 355.200,222.255 355.468,222.122 355.978 C 222.010 356.405,221.532 356.810,221.059 356.878 C 220.507 356.956,220.200 357.286,220.200 357.800 C 220.200 358.325,219.891 358.644,219.300 358.728 C 218.722 358.810,218.400 359.132,218.400 359.628 C 218.400 360.276,218.112 360.400,216.600 360.400 C 214.947 360.400,214.800 360.481,214.800 361.400 C 214.800 362.200,214.600 362.400,213.800 362.400 C 213.067 362.400,212.800 362.613,212.800 363.200 C 212.800 363.817,212.533 364.000,211.633 364.000 C 209.945 364.000,209.200 364.381,209.200 365.243 C 209.200 365.745,208.918 366.000,208.363 366.000 C 207.866 366.000,207.441 366.320,207.319 366.787 C 207.206 367.219,206.773 367.682,206.357 367.814 C 205.941 367.946,205.600 368.402,205.600 368.827 C 205.600 369.476,205.312 369.600,203.800 369.600 C 202.147 369.600,202.000 369.681,202.000 370.600 C 202.000 371.400,201.800 371.600,201.000 371.600 C 200.267 371.600,200.000 371.813,200.000 372.400 C 200.000 372.987,199.733 373.200,199.000 373.200 C 198.267 373.200,198.000 372.987,198.000 372.400 C 198.000 371.719,197.733 371.600,196.200 371.600 C 194.547 371.600,194.400 371.519,194.400 370.600 C 194.400 369.867,194.187 369.600,193.600 369.600 C 193.136 369.600,192.800 369.333,192.800 368.965 C 192.800 368.616,192.260 368.127,191.600 367.878 C 190.940 367.628,190.400 367.196,190.400 366.917 C 190.400 366.635,189.698 366.297,188.822 366.157 C 187.615 365.964,187.215 365.704,187.122 365.052 C 187.046 364.521,186.661 364.152,186.100 364.072 C 185.522 363.990,185.200 363.668,185.200 363.172 C 185.200 362.524,184.912 362.400,183.400 362.400 C 181.747 362.400,181.600 362.319,181.600 361.400 C 181.600 360.687,181.384 360.400,180.847 360.400 C 180.430 360.400,180.000 360.043,179.884 359.600 C 179.762 359.132,179.338 358.800,178.864 358.800 C 178.405 358.800,177.944 358.453,177.800 358.000 C 177.625 357.448,177.060 357.123,175.973 356.949 C 174.792 356.760,174.400 356.511,174.400 355.949 C 174.400 355.469,174.115 355.200,173.608 355.200 C 173.096 355.200,172.726 354.846,172.564 354.200 C 172.344 353.323,172.097 353.200,170.557 353.200 C 168.950 353.200,168.800 353.115,168.800 352.200 C 168.800 351.467,168.587 351.200,168.000 351.200 C 167.467 351.200,167.200 350.933,167.200 350.400 C 167.200 349.819,166.933 349.600,166.227 349.600 C 165.619 349.600,165.163 349.312,165.010 348.832 C 164.847 348.318,164.244 347.976,163.183 347.797 C 161.984 347.595,161.600 347.344,161.600 346.765 C 161.600 346.269,161.321 346.000,160.808 346.000 C 160.296 346.000,159.926 345.646,159.764 345.000 C 159.544 344.123,159.297 344.000,157.757 344.000 C 156.267 344.000,156.000 343.879,156.000 343.200 C 156.000 342.676,155.733 342.400,155.228 342.400 C 154.732 342.400,154.410 342.078,154.328 341.500 C 154.248 340.937,153.879 340.554,153.341 340.478 C 152.868 340.410,152.395 340.025,152.290 339.621 C 152.160 339.125,151.563 338.796,150.449 338.608 C 149.189 338.395,148.800 338.149,148.800 337.565 C 148.800 337.089,148.522 336.800,148.064 336.800 C 147.660 336.800,147.123 336.350,146.873 335.800 C 146.497 334.975,146.136 334.800,144.809 334.800 C 143.467 334.800,143.200 334.667,143.200 334.000 C 143.200 333.482,142.933 333.200,142.443 333.200 C 141.970 333.200,141.593 332.826,141.436 332.200 C 141.274 331.554,140.904 331.200,140.392 331.200 C 139.867 331.200,139.600 330.931,139.600 330.400 C 139.600 329.719,139.333 329.600,137.800 329.600 C 136.147 329.600,136.000 329.519,136.000 328.600 C 136.000 327.794,135.802 327.600,134.976 327.600 C 134.413 327.600,134.042 327.456,134.150 327.281 C 134.585 326.578,133.619 325.924,132.054 325.864 C 130.625 325.809,130.401 325.678,130.400 324.900 C 130.400 324.278,130.162 324.000,129.628 324.000 C 129.132 324.000,128.810 323.678,128.728 323.100 C 128.646 322.522,128.278 322.154,127.700 322.072 C 127.122 321.990,126.800 321.668,126.800 321.172 C 126.800 320.524,126.512 320.400,125.000 320.400 C 123.347 320.400,123.200 320.319,123.200 319.400 C 123.200 318.678,122.985 318.400,122.427 318.400 C 122.002 318.400,121.540 318.040,121.400 317.600 C 121.260 317.160,120.810 316.800,120.400 316.800 C 119.990 316.800,119.540 316.440,119.400 316.000 C 119.225 315.448,118.660 315.123,117.573 314.949 C 116.392 314.760,116.000 314.511,116.000 313.949 C 116.000 313.417,115.711 313.200,115.000 313.200 C 114.200 313.200,114.000 313.000,114.000 312.200 C 114.000 311.281,113.853 311.200,112.200 311.200 C 110.640 311.200,110.400 311.088,110.400 310.363 C 110.400 309.875,110.081 309.442,109.637 309.326 C 109.217 309.216,108.784 308.783,108.674 308.363 C 108.561 307.929,108.125 307.600,107.664 307.600 C 107.217 307.600,106.745 307.256,106.610 306.832 C 106.447 306.318,105.844 305.976,104.783 305.797 C 103.584 305.595,103.200 305.344,103.200 304.765 C 103.200 304.222,102.918 304.000,102.228 304.000 C 101.524 304.000,101.220 303.751,101.128 303.100 C 101.022 302.352,100.713 302.179,99.300 302.077 C 97.926 301.978,97.600 301.805,97.600 301.177 C 97.600 300.667,97.325 300.400,96.800 300.400 C 96.360 300.400,95.978 300.220,95.950 300.000 C 95.923 299.780,95.877 299.377,95.850 299.105 C 95.822 298.833,95.442 298.542,95.004 298.458 C 94.567 298.373,93.986 297.987,93.714 297.599 C 93.442 297.210,92.585 296.774,91.810 296.628 C 90.768 296.433,90.400 296.160,90.400 295.582 C 90.400 295.015,90.126 294.800,89.400 294.800 C 88.686 294.800,88.400 294.584,88.400 294.043 C 88.400 293.181,87.655 292.800,85.967 292.800 C 85.067 292.800,84.800 292.617,84.800 292.000 C 84.800 291.482,84.533 291.200,84.043 291.200 C 83.570 291.200,83.193 290.826,83.036 290.200 C 82.880 289.581,82.501 289.200,82.039 289.200 C 81.629 289.200,81.199 288.840,81.084 288.400 C 80.918 287.764,80.538 287.600,79.237 287.600 C 77.758 287.600,77.600 287.504,77.600 286.600 C 77.600 285.800,77.400 285.600,76.600 285.600 C 75.867 285.600,75.600 285.387,75.600 284.800 C 75.600 284.226,75.333 284.000,74.655 284.000 C 72.760 284.000,73.772 282.065,75.743 281.921 C 77.112 281.821,77.422 281.644,77.528 280.900 C 77.620 280.249,77.924 280.000,78.628 280.000 C 79.314 280.000,79.600 279.778,79.600 279.245 C 79.600 278.693,79.991 278.416,81.044 278.218 C 81.995 278.040,82.558 277.682,82.691 277.174 C 82.820 276.682,83.241 276.400,83.847 276.400 C 84.522 276.400,84.800 276.175,84.800 275.628 C 84.800 275.132,85.122 274.810,85.700 274.728 C 86.278 274.646,86.646 274.278,86.728 273.700 C 86.836 272.937,87.101 272.800,88.465 272.800 C 89.729 272.800,90.119 272.631,90.281 272.013 C 90.394 271.581,90.818 271.121,91.223 270.993 C 91.628 270.864,92.070 270.408,92.206 269.980 C 92.343 269.551,92.802 269.200,93.227 269.200 C 93.785 269.200,94.000 268.922,94.000 268.200 C 94.000 267.281,94.147 267.200,95.800 267.200 C 97.312 267.200,97.600 267.076,97.600 266.428 C 97.600 265.932,97.922 265.610,98.500 265.528 C 99.078 265.446,99.446 265.078,99.528 264.500 C 99.603 263.972,99.935 263.600,100.332 263.600 C 100.703 263.600,101.225 263.252,101.491 262.826 C 101.771 262.377,102.525 262.000,103.287 261.926 C 104.179 261.840,104.723 261.519,104.984 260.925 C 105.196 260.443,105.703 259.962,106.112 259.855 C 107.203 259.570,106.912 257.137,105.725 256.616 C 105.243 256.404,104.765 255.909,104.662 255.516 C 104.521 254.975,104.074 254.800,102.837 254.800 C 101.358 254.800,101.200 254.704,101.200 253.800 C 101.200 253.067,100.987 252.800,100.400 252.800 C 99.867 252.800,99.600 252.533,99.600 252.000 C 99.600 251.527,99.314 251.176,98.900 251.141 C 98.515 251.108,97.930 251.045,97.600 251.000 C 97.270 250.955,96.796 250.892,96.547 250.859 C 96.297 250.827,95.999 250.440,95.884 250.000 C 95.762 249.532,95.338 249.200,94.865 249.200 C 94.330 249.200,94.012 248.895,93.928 248.300 C 93.848 247.737,93.479 247.354,92.941 247.278 C 92.468 247.210,91.990 246.805,91.878 246.378 C 91.719 245.767,91.323 245.600,90.037 245.600 C 88.558 245.600,88.400 245.504,88.400 244.600 C 88.400 243.867,88.187 243.600,87.600 243.600 C 87.067 243.600,86.800 243.333,86.800 242.800 C 86.800 242.119,86.533 242.000,85.000 242.000 C 83.347 242.000,83.200 241.919,83.200 241.000 C 83.200 240.200,83.000 240.000,82.200 240.000 C 81.486 240.000,81.200 239.784,81.200 239.243 C 81.200 238.770,80.826 238.393,80.200 238.236 C 79.554 238.074,79.200 237.704,79.200 237.192 C 79.200 236.520,78.928 236.400,77.400 236.400 C 75.747 236.400,75.600 236.319,75.600 235.400 C 75.600 234.667,75.387 234.400,74.800 234.400 C 74.267 234.400,74.000 234.133,74.000 233.600 C 74.000 232.859,73.733 232.800,70.400 232.800 C 67.110 232.800,66.800 232.866,66.800 233.572 C 66.800 234.068,66.478 234.390,65.900 234.472 C 65.322 234.554,64.954 234.922,64.872 235.500 C 64.768 236.232,64.490 236.400,63.381 236.400 C 62.369 236.400,61.850 236.657,61.363 237.400 C 61.003 237.950,60.442 238.400,60.117 238.400 C 59.791 238.400,59.431 238.760,59.316 239.200 C 59.200 239.643,58.770 240.000,58.353 240.000 C 57.816 240.000,57.600 240.287,57.600 241.000 C 57.600 241.919,57.453 242.000,55.800 242.000 C 54.288 242.000,54.000 242.124,54.000 242.772 C 54.000 243.268,53.678 243.590,53.100 243.672 C 52.522 243.754,52.154 244.122,52.072 244.700 C 51.990 245.278,51.668 245.600,51.172 245.600 C 50.674 245.600,50.400 245.876,50.400 246.377 C 50.400 247.005,50.074 247.178,48.700 247.277 C 47.287 247.379,46.978 247.552,46.872 248.300 C 46.780 248.951,46.476 249.200,45.772 249.200 C 45.082 249.200,44.800 249.422,44.800 249.965 C 44.800 250.544,44.416 250.795,43.217 250.997 C 42.179 251.172,41.552 251.521,41.398 252.007 C 41.268 252.415,40.766 252.806,40.281 252.875 C 39.721 252.954,39.353 253.328,39.272 253.900 C 39.190 254.478,38.868 254.800,38.372 254.800 C 37.867 254.800,37.600 255.076,37.600 255.600 C 37.600 256.217,37.333 256.400,36.433 256.400 C 34.745 256.400,34.000 256.781,34.000 257.643 C 34.000 258.184,33.714 258.400,33.000 258.400 C 32.279 258.400,32.000 258.615,32.000 259.172 C 32.000 259.668,31.678 259.990,31.100 260.072 C 30.522 260.154,30.154 260.522,30.072 261.100 C 29.965 261.856,29.697 262.000,28.399 262.000 C 27.235 262.000,26.795 262.186,26.614 262.757 C 26.482 263.173,26.019 263.606,25.587 263.719 C 25.120 263.841,24.800 264.266,24.800 264.763 C 24.800 265.389,24.548 265.600,23.800 265.600 C 23.077 265.600,22.800 265.815,22.800 266.375 C 22.800 266.988,22.422 267.208,21.000 267.421 C 19.626 267.627,19.200 267.863,19.200 268.418 C 19.200 268.867,18.856 269.193,18.300 269.272 C 17.722 269.354,17.354 269.722,17.272 270.300 C 17.167 271.039,16.892 271.200,15.735 271.200 C 14.662 271.200,14.275 271.391,14.116 272.000 C 13.981 272.518,13.570 272.800,12.953 272.800 C 12.203 272.800,12.000 273.013,12.000 273.800 C 12.000 274.600,11.800 274.800,11.000 274.800 C 10.282 274.800,10.000 275.016,10.000 275.565 C 10.000 276.142,9.617 276.394,8.439 276.593 C 7.370 276.774,6.815 277.100,6.677 277.629 C 6.566 278.053,6.141 278.400,5.732 278.400 C 5.324 278.400,4.812 278.805,4.595 279.300 C 4.378 279.795,3.930 280.200,3.600 280.200 C 3.270 280.200,2.944 280.594,2.875 281.075 C 2.798 281.621,2.421 281.998,1.875 282.075 C 0.554 282.264,0.576 285.340,1.900 285.528 C 2.475 285.609,2.800 285.932,2.800 286.420 C 2.800 286.928,3.169 287.267,3.900 287.430 C 6.096 287.918,6.400 288.064,6.400 288.627 C 6.400 288.972,6.799 289.200,7.400 289.200 C 8.200 289.200,8.400 289.400,8.400 290.200 C 8.400 290.922,8.615 291.200,9.173 291.200 C 9.598 291.200,10.060 291.560,10.200 292.000 C 10.396 292.618,10.805 292.800,11.999 292.800 C 13.297 292.800,13.565 292.944,13.672 293.700 C 13.754 294.278,14.122 294.646,14.700 294.728 C 15.278 294.810,15.600 295.132,15.600 295.628 C 15.600 296.275,15.888 296.400,17.372 296.400 C 18.905 296.400,19.162 296.521,19.272 297.300 C 19.354 297.878,19.722 298.246,20.300 298.328 C 20.858 298.407,21.200 298.733,21.200 299.185 C 21.200 299.952,21.949 300.400,23.229 300.400 C 23.649 300.400,24.218 300.760,24.493 301.200 C 24.768 301.640,25.297 302.000,25.668 302.000 C 26.065 302.000,26.397 302.372,26.472 302.900 C 26.552 303.463,26.921 303.846,27.459 303.922 C 27.932 303.990,28.410 304.395,28.522 304.822 C 28.681 305.433,29.077 305.600,30.363 305.600 C 31.842 305.600,32.000 305.696,32.000 306.600 C 32.000 307.400,32.200 307.600,33.000 307.600 C 33.733 307.600,34.000 307.813,34.000 308.400 C 34.000 309.081,34.267 309.200,35.800 309.200 C 37.360 309.200,37.600 309.312,37.600 310.037 C 37.600 310.538,37.921 310.959,38.400 311.084 C 39.126 311.274,39.268 311.491,39.166 312.255 C 39.104 312.721,40.184 313.188,41.337 313.194 C 42.135 313.198,42.537 313.439,42.684 314.000 C 42.817 314.509,43.230 314.800,43.819 314.800 C 44.474 314.800,44.782 315.063,44.872 315.700 C 44.954 316.278,45.322 316.646,45.900 316.728 C 46.478 316.810,46.800 317.132,46.800 317.628 C 46.800 318.276,47.088 318.400,48.600 318.400 C 50.253 318.400,50.400 318.481,50.400 319.400 C 50.400 320.113,50.616 320.400,51.153 320.400 C 51.570 320.400,52.000 320.757,52.116 321.200 C 52.281 321.833,52.662 322.000,53.935 322.000 C 55.299 322.000,55.564 322.137,55.672 322.900 C 55.754 323.478,56.122 323.846,56.700 323.928 C 57.278 324.010,57.600 324.332,57.600 324.828 C 57.600 325.379,57.878 325.600,58.572 325.600 C 59.276 325.600,59.580 325.849,59.672 326.500 C 59.778 327.248,60.087 327.421,61.500 327.523 C 62.852 327.621,63.200 327.800,63.200 328.396 C 63.200 328.809,63.541 329.254,63.957 329.386 C 64.373 329.518,64.806 329.981,64.919 330.413 C 65.082 331.034,65.471 331.200,66.763 331.200 C 68.128 331.200,68.400 331.332,68.400 331.992 C 68.400 332.504,68.754 332.874,69.400 333.036 C 70.026 333.193,70.400 333.570,70.400 334.043 C 70.400 334.673,70.701 334.800,72.200 334.800 C 73.853 334.800,74.000 334.881,74.000 335.800 C 74.000 336.600,74.200 336.800,75.000 336.800 C 75.733 336.800,76.000 337.013,76.000 337.600 C 76.000 338.124,76.267 338.400,76.772 338.400 C 77.268 338.400,77.590 338.722,77.672 339.300 C 77.778 340.046,78.087 340.221,79.475 340.322 C 80.849 340.422,81.173 340.601,81.275 341.322 C 81.344 341.805,81.625 342.223,81.900 342.250 C 82.175 342.278,82.580 342.322,82.800 342.350 C 83.020 342.378,83.200 342.760,83.200 343.200 C 83.200 343.880,83.467 344.000,84.972 344.000 C 86.505 344.000,86.762 344.121,86.872 344.900 C 86.954 345.478,87.322 345.846,87.900 345.928 C 88.478 346.010,88.800 346.332,88.800 346.828 C 88.800 347.345,89.077 347.600,89.637 347.600 C 90.128 347.600,90.558 347.919,90.677 348.371 C 90.815 348.900,91.370 349.226,92.439 349.407 C 93.617 349.606,94.000 349.858,94.000 350.435 C 94.000 350.978,94.282 351.200,94.972 351.200 C 95.676 351.200,95.980 351.449,96.072 352.100 C 96.178 352.848,96.487 353.021,97.900 353.123 C 99.251 353.221,99.600 353.400,99.600 353.995 C 99.600 354.468,99.933 354.792,100.500 354.872 C 101.078 354.954,101.446 355.322,101.528 355.900 C 101.638 356.679,101.895 356.800,103.428 356.800 C 105.051 356.800,105.200 356.884,105.200 357.800 C 105.200 358.533,105.413 358.800,106.000 358.800 C 106.533 358.800,106.800 359.067,106.800 359.600 C 106.800 360.187,107.067 360.400,107.800 360.400 C 108.523 360.400,108.800 360.615,108.800 361.175 C 108.800 361.788,109.178 362.008,110.600 362.221 C 112.002 362.431,112.400 362.658,112.400 363.245 C 112.400 363.736,112.683 364.000,113.210 364.000 C 113.706 364.000,114.167 364.388,114.400 365.000 C 114.719 365.838,115.041 366.000,116.390 366.000 C 117.733 366.000,118.000 366.133,118.000 366.800 C 118.000 367.324,118.267 367.600,118.772 367.600 C 119.268 367.600,119.590 367.922,119.672 368.500 C 119.753 369.072,120.121 369.446,120.681 369.525 C 121.166 369.594,121.668 369.985,121.798 370.393 C 121.952 370.879,122.579 371.228,123.617 371.403 C 124.816 371.605,125.200 371.856,125.200 372.435 C 125.200 372.984,125.482 373.200,126.200 373.200 C 126.923 373.200,127.200 373.415,127.200 373.975 C 127.200 374.588,127.578 374.808,129.000 375.021 C 130.402 375.231,130.800 375.458,130.800 376.045 C 130.800 376.524,131.082 376.800,131.572 376.800 C 132.067 376.800,132.390 377.122,132.472 377.696 C 132.548 378.229,132.924 378.640,133.400 378.711 C 135.422 379.014,136.000 379.257,136.000 379.808 C 136.000 380.173,136.383 380.400,137.000 380.400 C 137.800 380.400,138.000 380.600,138.000 381.400 C 138.000 382.200,138.200 382.400,139.000 382.400 C 139.733 382.400,140.000 382.613,140.000 383.200 C 140.000 383.863,140.267 384.000,141.557 384.000 C 142.883 384.000,143.150 384.148,143.364 385.000 C 143.526 385.646,143.896 386.000,144.408 386.000 C 144.917 386.000,145.200 386.269,145.200 386.753 C 145.200 387.521,146.208 387.984,147.900 387.995 C 148.532 387.998,148.800 388.239,148.800 388.800 C 148.800 389.381,149.067 389.600,149.772 389.600 C 150.476 389.600,150.780 389.849,150.872 390.500 C 150.952 391.063,151.321 391.446,151.859 391.522 C 152.332 391.590,152.810 391.995,152.922 392.422 C 153.074 393.005,153.475 393.200,154.519 393.200 C 155.673 393.200,155.957 393.373,156.164 394.200 C 156.320 394.819,156.699 395.200,157.161 395.200 C 157.571 395.200,158.001 395.560,158.116 396.000 C 158.282 396.636,158.662 396.800,159.963 396.800 C 161.442 396.800,161.600 396.896,161.600 397.800 C 161.600 398.600,161.800 398.800,162.600 398.800 C 163.314 398.800,163.600 399.016,163.600 399.557 C 163.600 400.419,164.345 400.800,166.033 400.800 C 166.933 400.800,167.200 400.983,167.200 401.600 C 167.200 402.117,167.467 402.400,167.953 402.400 C 168.379 402.400,168.801 402.761,168.924 403.230 C 169.043 403.686,169.497 404.153,169.933 404.267 C 170.369 404.381,170.816 404.817,170.926 405.237 C 171.080 405.828,171.488 406.000,172.735 406.000 C 174.099 406.000,174.364 406.137,174.472 406.900 C 174.554 407.478,174.922 407.846,175.500 407.928 C 176.078 408.010,176.400 408.332,176.400 408.828 C 176.400 409.476,176.688 409.600,178.200 409.600 C 179.760 409.600,180.000 409.712,180.000 410.437 C 180.000 410.925,180.319 411.358,180.763 411.474 C 181.183 411.584,181.616 412.017,181.726 412.437 C 181.842 412.881,182.275 413.200,182.763 413.200 C 183.223 413.200,183.600 413.367,183.600 413.571 C 183.600 414.325,184.890 415.200,186.001 415.200 C 186.882 415.200,187.174 415.406,187.272 416.100 C 187.352 416.663,187.721 417.046,188.259 417.122 C 188.732 417.190,189.210 417.595,189.322 418.022 C 189.481 418.633,189.877 418.800,191.163 418.800 C 192.642 418.800,192.800 418.896,192.800 419.800 C 192.800 420.533,193.013 420.800,193.600 420.800 C 194.040 420.800,194.400 420.980,194.400 421.200 C 194.400 421.439,195.933 421.600,198.200 421.600 C 200.290 421.600,202.000 421.440,202.000 421.245 C 202.000 421.049,202.650 420.767,203.444 420.618 C 204.395 420.440,204.958 420.082,205.091 419.574 C 205.220 419.082,205.641 418.800,206.247 418.800 C 206.922 418.800,207.200 418.575,207.200 418.028 C 207.200 417.532,207.522 417.210,208.100 417.128 C 208.671 417.047,209.046 416.679,209.125 416.122 C 209.227 415.401,209.551 415.222,210.925 415.122 C 212.313 415.021,212.622 414.846,212.728 414.100 C 212.820 413.449,213.124 413.200,213.828 413.200 C 214.363 413.200,214.779 413.065,214.753 412.900 C 214.590 411.873,214.927 411.600,216.357 411.600 C 217.683 411.600,217.950 411.452,218.164 410.600 C 218.326 409.954,218.696 409.600,219.208 409.600 C 219.733 409.600,220.000 409.331,220.000 408.800 C 220.000 408.283,220.283 407.982,220.800 407.950 C 221.240 407.923,221.780 407.855,222.000 407.800 C 222.220 407.745,222.670 407.678,223.000 407.650 C 223.330 407.623,223.600 407.240,223.600 406.800 C 223.600 406.213,223.867 406.000,224.600 406.000 C 225.333 406.000,225.600 405.787,225.600 405.200 C 225.600 404.667,225.867 404.400,226.400 404.400 C 226.987 404.400,227.200 404.133,227.200 403.400 C 227.200 402.484,227.348 402.400,228.973 402.400 C 230.395 402.400,230.796 402.241,231.000 401.600 C 231.231 400.873,231.675 400.622,232.500 400.753 C 232.665 400.779,232.800 400.350,232.800 399.800 C 232.800 398.858,234.118 398.440,236.100 398.753 C 236.265 398.779,236.400 398.350,236.400 397.800 C 236.400 397.000,236.600 396.800,237.400 396.800 C 238.123 396.800,238.400 396.585,238.400 396.023 C 238.400 395.395,238.726 395.222,240.100 395.123 C 241.513 395.021,241.822 394.848,241.928 394.100 C 242.012 393.505,242.330 393.200,242.865 393.200 C 243.329 393.200,243.761 392.870,243.877 392.429 C 244.015 391.900,244.570 391.574,245.639 391.393 C 246.817 391.194,247.200 390.942,247.200 390.365 C 247.200 389.816,247.482 389.600,248.200 389.600 C 248.911 389.600,249.200 389.383,249.200 388.851 C 249.200 388.284,249.597 388.039,250.840 387.840 C 252.005 387.654,252.541 387.349,252.687 386.789 C 252.820 386.282,253.234 386.000,253.847 386.000 C 254.597 386.000,254.800 385.787,254.800 385.000 C 254.800 384.252,255.011 384.000,255.637 384.000 C 256.138 384.000,256.559 383.679,256.684 383.200 C 256.848 382.574,257.230 382.400,258.439 382.400 C 259.754 382.400,260.022 382.251,260.236 381.400 C 260.393 380.774,260.770 380.400,261.243 380.400 C 261.726 380.400,262.000 380.118,262.000 379.623 C 262.000 378.995,262.326 378.822,263.700 378.723 C 265.113 378.621,265.422 378.448,265.528 377.700 C 265.620 377.049,265.924 376.800,266.628 376.800 C 267.314 376.800,267.600 376.578,267.600 376.045 C 267.600 375.497,267.988 375.216,269.009 375.025 C 269.784 374.879,270.637 374.409,270.905 373.980 C 271.173 373.551,271.726 373.200,272.134 373.200 C 272.541 373.200,272.969 372.840,273.084 372.400 C 273.200 371.957,273.630 371.600,274.047 371.600 C 274.584 371.600,274.800 371.313,274.800 370.600 C 274.800 369.658,276.118 369.240,278.100 369.553 C 278.265 369.579,278.400 369.150,278.400 368.600 C 278.400 367.800,278.600 367.600,279.400 367.600 C 280.123 367.600,280.400 367.385,280.400 366.823 C 280.400 366.195,280.726 366.022,282.100 365.923 C 283.513 365.821,283.822 365.648,283.928 364.900 C 284.012 364.305,284.330 364.000,284.865 364.000 C 285.329 364.000,285.761 363.670,285.877 363.229 C 286.014 362.704,286.566 362.375,287.600 362.200 C 288.634 362.025,289.186 361.696,289.323 361.171 C 289.442 360.719,289.872 360.400,290.363 360.400 C 290.914 360.400,291.200 360.144,291.200 359.651 C 291.200 359.084,291.597 358.839,292.840 358.640 C 294.005 358.454,294.541 358.149,294.687 357.589 C 294.820 357.082,295.234 356.800,295.847 356.800 C 296.597 356.800,296.800 356.587,296.800 355.800 C 296.800 355.000,297.000 354.800,297.800 354.800 C 298.533 354.800,298.800 354.587,298.800 354.000 C 298.800 353.334,299.067 353.200,300.392 353.200 C 301.757 353.200,302.021 353.057,302.236 352.200 C 302.393 351.574,302.770 351.200,303.243 351.200 C 303.733 351.200,304.000 350.918,304.000 350.400 C 304.000 349.783,304.267 349.600,305.167 349.600 C 306.855 349.600,307.600 349.219,307.600 348.357 C 307.600 347.855,307.882 347.600,308.437 347.600 C 308.922 347.600,309.358 347.282,309.472 346.846 C 309.608 346.327,310.172 346.011,311.275 345.834 C 312.408 345.653,312.942 345.345,313.087 344.789 C 313.205 344.339,313.633 344.000,314.084 344.000 C 314.535 344.000,314.964 343.661,315.082 343.210 C 315.218 342.688,315.766 342.330,316.696 342.156 C 317.590 341.988,318.174 341.620,318.298 341.146 C 318.420 340.681,318.853 340.400,319.447 340.400 C 320.197 340.400,320.400 340.187,320.400 339.400 C 320.400 338.600,320.600 338.400,321.400 338.400 C 322.123 338.400,322.400 338.185,322.400 337.623 C 322.400 336.995,322.726 336.822,324.100 336.723 C 325.513 336.621,325.822 336.448,325.928 335.700 C 326.020 335.049,326.324 334.800,327.028 334.800 C 327.733 334.800,328.000 334.581,328.000 334.000 C 328.000 333.382,328.267 333.200,329.171 333.200 C 330.305 333.200,331.600 332.332,331.600 331.571 C 331.600 331.367,331.960 331.200,332.400 331.200 C 332.925 331.200,333.200 330.933,333.200 330.425 C 333.200 329.812,333.578 329.592,335.000 329.379 C 336.402 329.169,336.800 328.942,336.800 328.355 C 336.800 327.869,337.083 327.600,337.592 327.600 C 338.104 327.600,338.474 327.246,338.636 326.600 C 338.811 325.900,339.160 325.600,339.797 325.600 C 340.360 325.600,340.784 325.305,340.909 324.827 C 341.056 324.263,341.529 324.019,342.656 323.927 C 343.906 323.824,344.224 323.628,344.328 322.900 C 344.410 322.322,344.732 322.000,345.228 322.000 C 345.733 322.000,346.000 321.724,346.000 321.200 C 346.000 320.583,346.267 320.400,347.167 320.400 C 348.855 320.400,349.600 320.019,349.600 319.157 C 349.600 318.616,349.886 318.400,350.600 318.400 C 351.313 318.400,351.600 318.184,351.600 317.645 C 351.600 317.058,351.998 316.831,353.400 316.621 C 354.822 316.408,355.200 316.188,355.200 315.575 C 355.200 315.055,355.475 314.800,356.037 314.800 C 356.528 314.800,356.958 314.481,357.077 314.029 C 357.214 313.504,357.766 313.175,358.800 313.000 C 359.834 312.825,360.386 312.496,360.523 311.971 C 360.642 311.519,361.072 311.200,361.563 311.200 C 362.189 311.200,362.400 310.948,362.400 310.200 C 362.400 309.428,362.606 309.200,363.304 309.200 C 363.801 309.200,364.432 308.840,364.707 308.400 C 365.052 307.848,365.640 307.600,366.603 307.600 C 367.826 307.600,368.000 307.476,368.000 306.600 C 368.000 305.800,368.200 305.600,369.000 305.600 C 369.733 305.600,370.000 305.387,370.000 304.800 C 370.000 304.183,370.267 304.000,371.167 304.000 C 372.855 304.000,373.600 303.619,373.600 302.757 C 373.600 302.267,373.882 302.000,374.400 302.000 C 374.917 302.000,375.200 301.733,375.200 301.245 C 375.200 300.658,375.598 300.431,377.000 300.221 C 378.422 300.008,378.800 299.788,378.800 299.175 C 378.800 298.615,379.077 298.400,379.800 298.400 C 380.600 298.400,380.800 298.200,380.800 297.400 C 380.800 296.496,380.958 296.400,382.437 296.400 C 383.723 296.400,384.119 296.233,384.278 295.622 C 384.390 295.195,384.868 294.790,385.341 294.722 C 385.879 294.646,386.248 294.263,386.328 293.700 C 386.410 293.122,386.732 292.800,387.228 292.800 C 387.733 292.800,388.000 292.524,388.000 292.000 C 388.000 291.319,388.267 291.200,389.800 291.200 C 391.453 291.200,391.600 291.119,391.600 290.200 C 391.600 289.400,391.800 289.200,392.600 289.200 C 393.333 289.200,393.600 288.987,393.600 288.400 C 393.600 287.827,393.883 287.586,394.600 287.550 C 395.150 287.522,395.780 287.455,396.000 287.400 C 396.220 287.345,396.580 287.278,396.800 287.250 C 397.020 287.223,397.200 286.853,397.200 286.428 C 397.200 285.932,397.522 285.610,398.100 285.528 C 399.424 285.340,399.446 282.264,398.125 282.075 C 397.579 281.998,397.202 281.621,397.125 281.075 C 397.056 280.594,396.730 280.200,396.400 280.200 C 396.070 280.200,395.622 279.795,395.405 279.300 C 395.085 278.569,394.690 278.400,393.305 278.400 C 391.753 278.400,391.600 278.310,391.600 277.400 C 391.600 276.667,391.387 276.400,390.800 276.400 C 390.267 276.400,390.000 276.133,390.000 275.600 C 390.000 274.920,389.733 274.800,388.228 274.800 C 386.695 274.800,386.438 274.679,386.328 273.900 C 386.246 273.322,385.878 272.954,385.300 272.872 C 384.722 272.790,384.400 272.468,384.400 271.972 C 384.400 271.415,384.121 271.200,383.400 271.200 C 382.788 271.200,382.400 270.972,382.400 270.614 C 382.400 269.877,381.168 269.200,379.826 269.200 C 379.067 269.200,378.800 268.992,378.800 268.400 C 378.800 267.950,378.533 267.600,378.190 267.600 C 377.855 267.600,377.409 267.150,377.200 266.600 C 376.883 265.766,376.557 265.600,375.238 265.600 C 373.902 265.600,373.636 265.460,373.528 264.700 C 373.446 264.122,373.078 263.754,372.500 263.672 C 371.922 263.590,371.600 263.268,371.600 262.772 C 371.600 262.124,371.312 262.000,369.800 262.000 C 368.147 262.000,368.000 261.919,368.000 261.000 C 368.000 260.287,367.784 260.000,367.247 260.000 C 366.830 260.000,366.400 259.643,366.284 259.200 C 366.155 258.708,365.738 258.400,365.200 258.400 C 364.660 258.400,364.245 258.092,364.115 257.597 C 363.967 257.031,363.447 256.721,362.353 256.546 C 361.190 256.360,360.800 256.109,360.800 255.549 C 360.800 255.017,360.511 254.800,359.800 254.800 C 359.086 254.800,358.800 254.584,358.800 254.043 C 358.800 253.181,358.055 252.800,356.367 252.800 C 355.462 252.800,355.200 252.618,355.200 251.990 C 355.200 251.494,354.812 251.033,354.200 250.800 C 353.650 250.591,353.200 250.145,353.200 249.810 C 353.200 249.354,352.746 249.200,351.400 249.200 C 349.747 249.200,349.600 249.119,349.600 248.200 C 349.600 247.487,349.384 247.200,348.847 247.200 C 348.430 247.200,348.000 246.843,347.884 246.400 C 347.719 245.767,347.338 245.600,346.065 245.600 C 344.701 245.600,344.436 245.463,344.328 244.700 C 344.246 244.122,343.878 243.754,343.300 243.672 C 342.722 243.590,342.400 243.268,342.400 242.772 C 342.400 242.221,342.122 242.000,341.428 242.000 C 340.724 242.000,340.420 241.751,340.328 241.100 C 340.222 240.352,339.913 240.179,338.500 240.077 C 337.148 239.979,336.800 239.800,336.800 239.204 C 336.800 238.791,336.459 238.346,336.043 238.214 C 335.627 238.082,335.194 237.619,335.081 237.187 C 334.919 236.570,334.530 236.400,333.281 236.400 C 331.914 236.400,331.651 236.257,331.436 235.400 C 331.274 234.754,330.904 234.400,330.392 234.400 C 329.867 234.400,329.600 234.131,329.600 233.600 C 329.600 232.919,329.333 232.800,327.800 232.800 C 326.147 232.800,326.000 232.719,326.000 231.800 C 326.000 231.087,325.784 230.800,325.247 230.800 C 324.830 230.800,324.400 230.443,324.284 230.000 C 324.155 229.508,323.738 229.200,323.200 229.200 C 322.660 229.200,322.245 228.892,322.115 228.397 C 321.967 227.831,321.447 227.521,320.353 227.346 C 319.190 227.160,318.800 226.909,318.800 226.349 C 318.800 225.822,318.511 225.600,317.828 225.600 C 317.124 225.600,316.820 225.351,316.728 224.700 C 316.622 223.952,316.313 223.779,314.900 223.677 C 313.518 223.577,313.200 223.407,313.200 222.767 C 313.200 222.296,312.799 221.828,312.200 221.600 C 311.650 221.391,311.200 220.945,311.200 220.610 C 311.200 220.154,310.746 220.000,309.400 220.000 C 307.747 220.000,307.600 219.919,307.600 219.000 C 307.600 218.450,307.465 218.021,307.300 218.047 C 306.416 218.187,306.000 217.916,306.000 217.200 C 306.000 216.520,305.733 216.400,304.228 216.400 C 302.695 216.400,302.438 216.279,302.328 215.500 C 302.246 214.922,301.878 214.554,301.300 214.472 C 300.722 214.390,300.400 214.068,300.400 213.572 C 300.400 213.015,300.121 212.800,299.400 212.800 C 298.788 212.800,298.400 212.572,298.400 212.214 C 298.400 211.477,297.168 210.800,295.826 210.800 C 295.079 210.800,294.800 210.590,294.800 210.027 C 294.800 209.602,294.449 209.143,294.020 209.006 C 293.592 208.870,293.130 208.408,292.994 207.980 C 292.805 207.386,292.381 207.200,291.216 207.200 C 289.918 207.200,289.649 207.049,289.436 206.200 C 289.274 205.554,288.904 205.200,288.392 205.200 C 287.867 205.200,287.600 204.931,287.600 204.400 C 287.600 203.719,287.333 203.600,285.800 203.600 C 284.147 203.600,284.000 203.519,284.000 202.600 C 284.000 201.800,283.800 201.600,283.000 201.600 C 282.267 201.600,282.000 201.387,282.000 200.800 C 282.000 200.119,281.733 200.000,280.200 200.000 C 278.547 200.000,278.400 199.919,278.400 199.000 C 278.400 198.267,278.187 198.000,277.600 198.000 C 277.067 198.000,276.800 197.733,276.800 197.200 C 276.800 196.613,276.533 196.400,275.800 196.400 C 275.086 196.400,274.800 196.184,274.800 195.643 C 274.800 194.785,274.055 194.400,272.395 194.400 C 271.518 194.400,271.226 194.193,271.128 193.500 C 271.046 192.922,270.678 192.554,270.100 192.472 C 269.522 192.390,269.200 192.068,269.200 191.572 C 269.200 190.924,268.912 190.800,267.400 190.800 C 265.747 190.800,265.600 190.719,265.600 189.800 C 265.600 189.087,265.384 188.800,264.847 188.800 C 264.430 188.800,264.000 188.443,263.884 188.000 C 263.673 187.193,257.800 186.733,257.067 187.467 M192.800 275.372 C 192.800 276.076,193.049 276.380,193.700 276.472 C 194.291 276.556,194.600 276.875,194.600 277.400 C 194.600 277.920,194.908 278.244,195.481 278.325 C 195.966 278.394,196.476 278.810,196.615 279.249 C 196.785 279.783,197.154 280.006,197.730 279.923 C 198.947 279.749,199.099 278.497,197.923 278.331 C 197.314 278.245,196.956 277.886,196.869 277.278 C 196.794 276.745,196.331 276.202,195.769 275.988 C 195.236 275.786,194.800 275.345,194.800 275.010 C 194.800 274.626,194.429 274.400,193.800 274.400 C 193.008 274.400,192.800 274.602,192.800 275.372 M200.000 281.000 C 200.000 281.792,200.202 282.000,200.972 282.000 C 201.662 282.000,201.981 282.251,202.072 282.864 C 202.142 283.339,202.530 283.775,202.934 283.833 C 203.337 283.891,203.877 284.225,204.134 284.574 C 204.390 284.924,204.984 285.283,205.454 285.373 C 206.661 285.604,206.225 284.066,204.945 283.579 C 204.381 283.365,204.000 282.893,204.000 282.410 C 204.000 281.883,203.736 281.600,203.247 281.600 C 202.830 281.600,202.400 281.243,202.284 280.800 C 201.951 279.527,200.000 279.698,200.000 281.000 " stroke="none" fill="#ffffff" fill-rule="evenodd"></path>
        <path id="path1" d="M188.800 137.000 C 189.158 137.941,189.102 138.000,187.870 138.000 C 187.150 138.000,186.344 138.216,186.080 138.480 C 185.711 138.849,185.600 153.878,185.600 203.690 L 185.600 268.420 186.600 268.800 C 187.150 269.009,187.600 269.435,187.600 269.747 C 187.600 270.058,188.050 270.426,188.600 270.564 C 189.331 270.748,189.600 271.083,189.600 271.808 C 189.600 272.533,189.815 272.800,190.400 272.800 C 190.992 272.800,191.200 273.067,191.200 273.825 C 191.200 274.812,191.265 274.839,193.000 274.579 C 194.511 274.353,194.800 274.414,194.800 274.964 C 194.800 275.325,195.236 275.786,195.769 275.988 C 196.331 276.202,196.794 276.745,196.869 277.278 C 196.956 277.891,197.314 278.244,197.938 278.333 C 198.640 278.432,198.826 278.659,198.676 279.233 C 198.500 279.905,198.697 280.000,200.275 280.000 C 201.738 280.000,202.114 280.150,202.284 280.800 C 202.400 281.243,202.830 281.600,203.247 281.600 C 203.736 281.600,204.000 281.883,204.000 282.410 C 204.000 282.915,204.393 283.369,205.045 283.617 C 205.801 283.905,206.034 284.225,205.890 284.779 C 205.711 285.461,205.880 285.528,207.465 285.399 C 209.042 285.270,209.282 285.363,209.610 286.227 C 210.006 287.268,211.132 287.508,211.920 286.720 C 212.290 286.350,212.400 270.830,212.400 219.295 L 212.400 152.351 210.633 152.616 C 208.992 152.862,208.857 152.814,208.733 151.940 C 208.647 151.331,208.292 150.956,207.725 150.875 C 207.179 150.798,206.802 150.421,206.725 149.875 C 206.619 149.132,206.372 149.013,205.086 149.090 C 203.816 149.165,203.514 149.025,203.209 148.223 C 203.009 147.698,202.521 147.205,202.123 147.128 C 201.717 147.050,201.401 146.642,201.401 146.195 C 201.400 145.518,201.154 145.411,199.739 145.472 C 198.404 145.530,198.039 145.393,197.878 144.777 C 197.768 144.355,197.202 143.829,196.620 143.608 C 195.940 143.349,195.606 142.956,195.682 142.503 C 195.776 141.941,195.467 141.776,194.141 141.679 C 192.893 141.588,192.432 141.365,192.279 140.779 C 192.159 140.320,191.731 140.000,191.237 140.000 C 190.608 140.000,190.400 139.748,190.400 138.987 C 190.400 138.431,190.130 137.871,189.800 137.745 C 189.470 137.618,189.200 137.174,189.200 136.757 C 189.200 136.341,189.024 136.000,188.810 136.000 C 188.559 136.000,188.556 136.357,188.800 137.000 M214.589 245.400 C 214.589 260.580,214.639 266.732,214.700 259.071 C 214.761 251.410,214.761 238.990,214.700 231.471 C 214.639 223.952,214.589 230.220,214.589 245.400 " stroke="none" fill="#ffffff" fill-rule="evenodd"></path>
    </g>
</svg>